<svg width="76" height="76" viewBox="0 0 76 76" fill="none" xmlns="http://www.w3.org/2000/svg">
<rect width="75.4366" height="75.4366" rx="37.7183" fill="#1E6FFE"/>
<path fill-rule="evenodd" clip-rule="evenodd" d="M60.3993 32.4924L61.5674 35.8119C61.7505 36.3321 61.4825 36.9089 60.9689 37.1004L43.6743 43.5481C42.0699 44.1474 40.361 44.2115 38.7901 43.7654L38.7901 43.7656L38.7819 43.7632L38.7798 43.7627L38.7763 43.7617C38.7761 43.7616 38.776 43.7614 38.7758 43.7613L38.7613 43.7572L38.7613 43.757C37.196 43.3083 35.7817 42.3566 34.736 41.0068L24.4978 27.8252L24.5007 27.8291C24.4113 27.7154 24.3324 27.646 24.2549 27.5936C24.1775 27.542 24.0985 27.5056 23.9968 27.4752C23.9118 27.4513 23.8146 27.4384 23.7145 27.4403C23.6135 27.4421 23.51 27.4589 23.4146 27.4888L23.4141 27.4889C23.2154 27.5514 23.0542 27.6616 22.938 27.8034C22.8965 27.855 22.8619 27.9066 22.8302 27.9671C22.7985 28.0283 22.7693 28.0991 22.7434 28.1896L18.3381 43.6794C18.2657 43.9338 18.0937 44.1542 17.8658 44.284C17.638 44.4138 17.3645 44.4475 17.1148 44.3764L13.7725 43.4257C13.2489 43.2768 12.9474 42.7232 13.0992 42.1892L17.5036 26.7041C17.5056 26.6969 17.5072 26.6914 17.5075 26.6898C17.5075 26.6898 17.5075 26.6897 17.5075 26.6896L17.5077 26.6897C17.7657 25.7854 18.1977 24.97 18.7557 24.2876L18.7553 24.2883C19.3138 23.6043 19.9893 23.0605 20.7237 22.6671L20.7249 22.6665C22.1884 21.8846 23.9004 21.6777 25.5192 22.1352L25.5107 22.133C25.5217 22.1359 25.5288 22.1379 25.5331 22.1391L25.5331 22.1391C26.7651 22.4897 27.925 23.2428 28.7917 24.3617L39.0283 37.5416L39.0301 37.5438C39.2115 37.7766 39.4101 37.9604 39.6223 38.1047C39.8343 38.2485 40.0606 38.3531 40.3009 38.4222C40.5413 38.4898 40.7888 38.52 41.0448 38.5092C41.3013 38.4982 41.5671 38.4465 41.8441 38.3439L59.1374 31.8969C59.4847 31.7676 59.8684 31.8433 60.1391 32.0948L60.1393 32.0948C60.2579 32.2051 60.3449 32.338 60.3993 32.4924ZM49.6265 53.3825C49.7326 53.5728 49.8897 53.6976 50.098 53.7568L55.3978 55.2641C55.606 55.3233 55.8053 55.2999 55.9958 55.1939C56.1862 55.0879 56.311 54.9308 56.3701 54.7227L57.6614 50.1825C57.7206 49.9744 57.6971 49.7752 57.591 49.5848C57.4848 49.3945 57.3277 49.2697 57.1195 49.2105L56.3623 48.9952C56.5112 48.4718 56.4535 47.9732 56.1893 47.4993C55.9251 47.0254 55.5312 46.714 55.0075 46.5651C54.4839 46.4162 53.985 46.4737 53.511 46.7376C53.037 47.0015 52.7256 47.3952 52.5767 47.9185L51.8196 47.7032C51.6114 47.644 51.4121 47.6674 51.2217 47.7734C51.0312 47.8794 50.9064 48.0365 50.8473 48.2446L49.556 52.7848C49.4969 52.9929 49.5203 53.1921 49.6265 53.3825ZM55.5026 47.8816C55.6607 48.1652 55.6949 48.4646 55.6052 48.7798L53.3338 48.1339C53.4235 47.8186 53.6101 47.582 53.8937 47.4241C54.1773 47.2662 54.4769 47.2321 54.7923 47.3218C55.1078 47.4115 55.3446 47.5981 55.5026 47.8816ZM54.9992 51.3782C54.5328 51.5795 54.0661 51.6137 53.5992 51.481C53.1323 51.3482 52.7567 51.0744 52.4723 50.6595C52.188 50.2447 52.1005 49.8449 52.2099 49.4602C52.2404 49.353 52.3026 49.2719 52.3967 49.2169C52.4908 49.1619 52.5915 49.1496 52.6987 49.1801C52.787 49.2052 52.8551 49.2536 52.903 49.3251C52.9508 49.3966 52.9735 49.4968 52.971 49.6256C52.9659 49.8831 53.0453 50.1136 53.2091 50.317C53.3729 50.5203 53.5747 50.6561 53.8144 50.7243C54.0542 50.7924 54.2956 50.7827 54.5388 50.6951C54.7819 50.6075 54.9723 50.4538 55.1098 50.2339C55.1737 50.1293 55.2484 50.0586 55.3339 50.0216C55.4194 49.9845 55.5064 49.9786 55.5947 50.0037C55.702 50.0342 55.7795 50.0972 55.8274 50.1926C55.8753 50.288 55.884 50.3893 55.8535 50.4965C55.7504 50.8829 55.4657 51.1768 54.9992 51.3782Z" fill="white"/>
</svg>
