<svg width="134" height="130" viewBox="0 0 134 130" fill="none" xmlns="http://www.w3.org/2000/svg">
<path d="M109.725 0.710506C109.565 0.485357 109.253 0.432449 109.028 0.592332C108.803 0.752216 108.75 1.06435 108.91 1.28949L109.725 0.710506ZM132.496 18.9379L132.006 19.0384L132.496 18.9379ZM119.595 41.1589L119.417 40.6917L119.595 41.1589ZM103.344 30.8366L103.8 31.0412L103.344 30.8366ZM111.451 26.7352L111.462 26.2353L111.451 26.7352ZM118.279 33.0451L117.794 33.168L118.279 33.0451ZM110.761 52.1485L110.37 51.8372L110.761 52.1485ZM98.2237 63.6479L98.4295 64.1035L98.2237 63.6479ZM79.6787 81.4599C79.9327 81.5683 80.2264 81.4501 80.3347 81.1961L82.0999 77.0568C82.2083 76.8028 82.0902 76.5091 81.8362 76.4008C81.5822 76.2924 81.2884 76.4105 81.1801 76.6645L79.611 80.3439L75.9316 78.7749C75.6776 78.6665 75.3839 78.7846 75.2756 79.0387C75.1672 79.2927 75.2853 79.5864 75.5393 79.6947L79.6787 81.4599ZM108.91 1.28949C112.875 6.87265 118.289 8.84914 122.835 10.6873C127.421 12.5419 131.018 14.2205 132.006 19.0384L132.986 18.8375C131.879 13.4429 127.755 11.5985 123.209 9.76025C118.623 7.90559 113.495 6.01937 109.725 0.710506L108.91 1.28949ZM132.006 19.0384C132.973 23.7529 132.541 28.1192 130.534 31.8164C128.528 35.5121 124.917 38.5968 119.417 40.6917L119.773 41.6262C125.445 39.4657 129.269 36.2429 131.413 32.2934C133.556 28.3454 133.988 23.7288 132.986 18.8375L132.006 19.0384ZM119.417 40.6917C118.156 41.1722 116.493 41.2734 114.712 41.0884C112.939 40.9042 111.094 40.441 109.495 39.834L109.14 40.7689C110.813 41.404 112.743 41.8892 114.608 42.0831C116.466 42.2761 118.306 42.185 119.773 41.6262L119.417 40.6917ZM109.495 39.834C107.95 39.2474 106.099 37.9082 104.852 36.2541C103.603 34.5959 103.039 32.7384 103.8 31.0412L102.888 30.632C101.913 32.8064 102.7 35.0602 104.054 36.856C105.41 38.6559 107.413 40.1133 109.14 40.7689L109.495 39.834ZM103.8 31.0412C104.834 28.7369 107.918 27.1566 111.44 27.2351L111.462 26.2353C107.708 26.1517 104.146 27.8276 102.888 30.632L103.8 31.0412ZM111.44 27.2351C113.451 27.2799 114.859 28.1106 115.855 29.2433C116.865 30.3902 117.462 31.8606 117.794 33.168L118.763 32.9222C118.41 31.5274 117.757 29.891 116.606 28.5827C115.442 27.2601 113.779 26.287 111.462 26.2353L111.44 27.2351ZM117.794 33.168C118.395 35.5393 117.878 38.5379 116.515 41.8128C115.157 45.0756 112.986 48.5496 110.37 51.8372L111.153 52.4598C113.809 49.121 116.036 45.5674 117.439 42.197C118.836 38.8387 119.442 35.5987 118.763 32.9222L117.794 33.168ZM110.37 51.8372C109.326 53.1497 108.489 54.3171 107.716 55.366C106.94 56.4188 106.227 57.3528 105.413 58.2283C103.798 59.9655 101.759 61.5016 98.0178 63.1922L98.4295 64.1035C102.267 62.3698 104.423 60.7625 106.146 58.9091C107.001 57.9894 107.742 57.0164 108.521 55.9594C109.303 54.8986 110.123 53.7535 111.153 52.4598L110.37 51.8372ZM98.0178 63.1922C96.1219 64.0489 93.7554 64.826 91.2875 65.711C88.8385 66.5891 86.3074 67.568 84.1579 68.8153C82.0111 70.0609 80.1918 71.604 79.2296 73.6381C78.2575 75.693 78.1973 78.1683 79.4109 81.1865L80.3387 80.8135C79.2054 77.9948 79.3053 75.8165 80.1335 74.0657C80.9716 72.2941 82.5927 70.8796 84.6597 69.6802C86.7241 68.4824 89.1802 67.529 91.6251 66.6523C94.051 65.7824 96.4851 64.9821 98.4295 64.1035L98.0178 63.1922Z" fill="white"/>
<path d="M36.0282 20.7533C35.892 20.5131 35.5868 20.4289 35.3466 20.5651C35.1064 20.7014 35.0222 21.0066 35.1585 21.2467L36.0282 20.7533ZM6.41046 44.9297L6.84166 45.1828L6.41046 44.9297ZM10.3617 72.3304L10.6947 71.9574L10.3617 72.3304ZM14.8092 64.6145L14.4918 64.2282L14.8092 64.6145ZM1.46677 90.3835L1.96296 90.4451L1.46677 90.3835ZM5.63628 116.743L6.07128 116.497L5.63628 116.743ZM13.1693 129.475C13.4314 129.562 13.7144 129.419 13.8013 129.157L15.2177 124.886C15.3046 124.624 15.1625 124.341 14.9004 124.254C14.6383 124.167 14.3554 124.309 14.2685 124.571L13.0095 128.368L9.21279 127.109C8.95068 127.022 8.66774 127.164 8.58082 127.426C8.49391 127.688 8.63593 127.971 8.89804 128.058L13.1693 129.475ZM35.1585 21.2467C35.5844 21.9975 35.5982 22.7295 35.2764 23.498C34.9428 24.2946 34.2422 25.1391 33.2131 26.0332C31.1559 27.8206 27.9586 29.6628 24.4002 31.6108C20.8633 33.5471 16.987 35.579 13.6498 37.7254C10.3242 39.8644 7.45273 42.1662 5.97925 44.6766L6.84166 45.1828C8.18709 42.8906 10.881 40.6953 14.1908 38.5665C17.4891 36.445 21.3182 34.438 24.8804 32.488C28.421 30.5497 31.7165 28.6582 33.869 26.788C34.9449 25.8533 35.7785 24.888 36.1988 23.8843C36.6309 22.8523 36.6184 21.7935 36.0282 20.7533L35.1585 21.2467ZM5.97925 44.6766C1.1847 52.845 0.949469 64.6 10.0288 72.7035L10.6947 71.9574C2.0449 64.2373 2.23426 53.0324 6.84166 45.1828L5.97925 44.6766ZM10.0288 72.7035C11.6838 74.1806 13.2962 74.8451 14.8042 74.8687C16.3123 74.8924 17.6419 74.274 18.7281 73.3273C20.8776 71.454 22.1657 68.2214 22.1657 65.6482H21.1657C21.1657 67.9595 19.983 70.9072 18.071 72.5734C17.1265 73.3966 16.0278 73.8878 14.8199 73.8689C13.6119 73.8499 12.2207 73.3195 10.6947 71.9574L10.0288 72.7035ZM22.1657 65.6482C22.1657 64.6232 21.9468 63.781 21.5016 63.1628C21.047 62.5316 20.3913 62.183 19.6313 62.0963C18.1594 61.9285 16.3095 62.7351 14.4918 64.2282L15.1266 65.0009C16.8749 63.5648 18.4532 62.9685 19.518 63.0899C20.0265 63.1478 20.4162 63.3669 20.6901 63.7472C20.9733 64.1404 21.1657 64.7534 21.1657 65.6482H22.1657ZM14.4918 64.2282C6.1268 71.0993 2.11746 81.081 0.970577 90.3219L1.96296 90.4451C3.08785 81.3813 7.01247 71.6659 15.1266 65.0009L14.4918 64.2282ZM0.970577 90.3219C-0.129503 99.1857 0.475998 108.652 5.20128 116.99L6.07128 116.497C1.49137 108.415 0.87742 99.1918 1.96296 90.4451L0.970577 90.3219ZM5.20128 116.99C6.38997 119.087 7.79955 121.121 9.15894 123.133C10.5241 125.154 11.8417 127.156 12.8798 129.224L13.7736 128.776C12.7033 126.644 11.3522 124.593 9.98754 122.574C8.61706 120.545 7.23562 118.551 6.07128 116.497L5.20128 116.99Z" fill="white"/>
</svg>
