<svg width="68" height="17" viewBox="0 0 68 17" fill="none" xmlns="http://www.w3.org/2000/svg">
<path d="M60.7778 14.5785C60.7762 14.58 60.7755 14.5808 60.7739 14.5823L60.7778 14.5785Z" fill="white"/>
<path d="M60.7739 2.6046C60.7747 2.60536 60.7755 2.60613 60.7762 2.6069C60.7762 2.6069 60.777 2.60766 60.7778 2.60843L60.7739 2.6046Z" fill="white"/>
<path d="M21.3564 11.2152L21.3602 11.2128C21.3589 11.2128 21.3589 11.214 21.3589 11.214L21.3564 11.2152Z" fill="white"/>
<path d="M7.32666 0.892544C7.32804 0.893481 7.32942 0.894418 7.33034 0.895355L7.32666 0.892544Z" fill="white"/>
<path d="M31.0562 11.6724C30.6014 11.3585 30.0483 11.1743 29.4595 11.1746C29.0673 11.1745 28.69 11.2561 28.3479 11.4038C27.8347 11.6254 27.4002 11.9937 27.0926 12.4582C26.7847 12.9222 26.6042 13.4864 26.6045 14.0871C26.6044 14.4873 26.6843 14.8722 26.8292 15.221C27.0464 15.7447 27.4074 16.188 27.8627 16.5017C28.3175 16.8158 28.8706 17 29.4595 16.9997C29.8517 16.9997 30.229 16.9181 30.571 16.7705C31.0843 16.5489 31.5188 16.1805 31.8265 15.7161C32.1342 15.2521 32.3147 14.6879 32.3145 14.0871C32.3146 13.687 32.2346 13.302 32.0898 12.9532C31.8726 12.4296 31.5115 11.9863 31.0562 11.6724Z" fill="white"/>
<path d="M0.000277729 4.71579H0.000138864H0.000277729ZM32.1811 2.36332L30.7241 0.301683C30.6564 0.205776 30.5703 0.131121 30.4668 0.0782795H30.4667C30.2306 -0.0421352 29.9511 -0.0190449 29.737 0.138346L19.0731 7.98214C18.9022 8.10737 18.729 8.1952 18.5542 8.25314C18.3798 8.3108 18.2032 8.33857 18.024 8.33913C17.8448 8.33857 17.6681 8.3108 17.4937 8.25314C17.319 8.1952 17.146 8.10737 16.9752 7.98228L16.9735 7.98115L7.32704 0.894123C6.50968 0.292051 5.56193 -6.10352e-05 4.64334 -0.000202179C4.64015 -0.000202179 4.63487 -0.000202179 4.62668 -6.10352e-05L4.63293 -0.000202179C3.42662 0.00178146 2.28626 0.480606 1.43016 1.3075L1.42947 1.30821C1.0001 1.72385 0.640859 2.23171 0.389792 2.81339L0.389931 2.81282C0.138864 3.39336 0.000833186 4.04091 0.000277729 4.71565H0.000138864C0.000277729 4.7165 0.000277729 4.72075 0.000277729 4.72642L0 16.2781C0 16.6765 0.316611 16.9993 0.706958 16.9993L3.19888 16.9995C3.3851 16.9995 3.56715 16.9226 3.69879 16.7883C3.83057 16.654 3.90597 16.4681 3.90597 16.2783V4.72316C3.90611 4.65559 3.91236 4.60105 3.92222 4.5526C3.93222 4.50457 3.94597 4.46222 3.96444 4.41844C4.01679 4.29774 4.10636 4.19008 4.23119 4.10791L4.23147 4.10777C4.29146 4.06839 4.35951 4.03651 4.4288 4.01541C4.49754 3.99444 4.56711 3.98424 4.63043 3.9841C4.70653 3.98509 4.76818 3.99472 4.83164 4.01512C4.89538 4.03609 4.96343 4.06853 5.04744 4.12945L5.04466 4.12732L14.6925 11.2152C15.6786 11.9415 16.8409 12.3207 18.0086 12.3232V12.3233C18.0138 12.3233 18.0171 12.3233 18.0194 12.3233C18.0196 12.3233 18.0197 12.3234 18.0199 12.3234H18.0225H18.024H18.0301V12.3233C19.2012 12.3229 20.3674 11.9432 21.3565 11.2146L32.021 3.37013C32.3377 3.13709 32.4094 2.68646 32.1811 2.36332Z" fill="white"/>
<path d="M14.6952 11.216C14.6937 11.2152 14.6922 11.2137 14.6914 11.2129L14.6952 11.216Z" fill="white"/>
<path d="M39.2652 4.33695L41.1568 7.05293H41.2269L43.1186 4.33695V8.41092H43.644V3.40777H43.1535L41.1918 6.23099L39.2301 3.40777H38.7397V8.41092H39.2652V4.33695Z" fill="white"/>
<path d="M47.1333 7.98267C45.9703 7.98267 45.1856 7.1392 45.1856 5.90984C45.1856 4.68062 45.9703 3.83715 47.1333 3.83715C48.2963 3.83715 49.081 4.68062 49.081 5.90984C49.081 7.1392 48.2963 7.98267 47.1333 7.98267ZM47.1333 3.32249C45.732 3.32249 44.6392 4.42322 44.6392 5.90984C44.6392 7.3966 45.732 8.49719 47.1333 8.49719C48.5346 8.49719 49.6274 7.3966 49.6274 5.90984C49.6274 4.42322 48.5346 3.32249 47.1333 3.32249Z" fill="white"/>
<path d="M52.6336 2.83603C53.3693 2.83603 53.8948 2.4643 53.8948 1.79962H53.5444C53.5444 2.19996 53.145 2.40707 52.6336 2.40707C52.1221 2.40707 51.7228 2.19996 51.7228 1.79962H51.3726C51.3726 2.4643 51.8979 2.83603 52.6336 2.83603Z" fill="white"/>
<path d="M51.148 7.48175V3.40777H50.6226V8.41092H51.0429L54.1186 4.33695V8.41092H54.6441V3.40777H54.2237L51.148 7.48175Z" fill="white"/>
<path d="M41.6052 15.9208H41.4651V12.5758H41.6052C42.6561 12.5758 43.4057 13.2834 43.4057 14.2483C43.4057 15.2132 42.6561 15.9208 41.6052 15.9208ZM40.9606 15.9208H40.8205C39.7696 15.9208 39.02 15.2132 39.02 14.2483C39.02 13.2834 39.7696 12.5758 40.8205 12.5758H40.9606V15.9208ZM41.6052 12.097V12.0899H41.4651V11.4965H40.9606V12.0899H40.8205V12.097C39.5243 12.097 38.5015 12.9975 38.5015 14.2483C38.5015 15.499 39.5243 16.4068 40.8205 16.4068H40.9606V17H41.4651V16.4068H41.6052C42.9014 16.4068 43.9243 15.499 43.9243 14.2483C43.9243 12.9975 42.9014 12.097 41.6052 12.097Z" fill="white"/>
<path d="M45.4449 15.8202V11.7462H44.9194V16.7494H45.3398L48.4155 12.6754V16.7494H48.9409V11.7462H48.5206L45.4449 15.8202Z" fill="white"/>
<path d="M49.7539 12.2464H51.5965V16.7494H52.122V12.2464H53.9926V11.7462H49.7539V12.2464Z" fill="white"/>
<path d="M58.1687 13.9261H55.3313V11.7462H54.8057V16.7494H55.3313V14.4265H58.1687V16.7494H58.6941V11.7462H58.1687V13.9261Z" fill="white"/>
<path d="M60.4313 14.4193H62.6031V13.9334H60.4313V12.2323H63.2337V11.7462H59.9268V16.7494H63.3038V16.2633H60.4313V14.4193Z" fill="white"/>
<path d="M67.8021 15.9638C67.2906 16.2067 66.7792 16.3355 66.2328 16.3355C65.0767 16.3355 64.257 15.4777 64.257 14.2483C64.257 13.0191 65.0697 12.1613 66.2397 12.1613C66.7162 12.1613 67.1926 12.2757 67.7321 12.5186L67.9001 12.1543C67.4869 11.8755 66.9264 11.661 66.1836 11.661C64.8105 11.661 63.7104 12.7617 63.7104 14.2483C63.7104 15.735 64.8175 16.8357 66.1627 16.8357C67.0594 16.8357 67.613 16.5784 67.9983 16.3212L67.8021 15.9638Z" fill="white"/>
</svg>
