<svg width="375" height="741" viewBox="0 0 375 741" fill="none" xmlns="http://www.w3.org/2000/svg">
<g clip-path="url(#clip0_5_189)">
<path d="M0 0H375V720C375 731.598 365.598 741 354 741H21C9.40202 741 0 731.598 0 720V0Z" fill="#38AEC6"/>
<g filter="url(#filter0_f_5_189)">
<path d="M680 785.5C680 848.46 624.931 899.5 557 899.5C489.069 899.5 434 848.46 434 785.5C434 722.54 489.069 671.5 557 671.5C624.931 671.5 680 722.54 680 785.5Z" fill="#1E6FFE"/>
</g>
</g>
<defs>
<filter id="filter0_f_5_189" x="307.2" y="544.7" width="499.6" height="481.6" filterUnits="userSpaceOnUse" color-interpolation-filters="sRGB">
<feFlood flood-opacity="0" result="BackgroundImageFix"/>
<feBlend mode="normal" in="SourceGraphic" in2="BackgroundImageFix" result="shape"/>
<feGaussianBlur stdDeviation="63.4" result="effect1_foregroundBlur_5_189"/>
</filter>
<clipPath id="clip0_5_189">
<path d="M0 0H375V720C375 731.598 365.598 741 354 741H21C9.40202 741 0 731.598 0 720V0Z" fill="white"/>
</clipPath>
</defs>
</svg>
