<svg width="390" height="661" viewBox="0 0 390 661" fill="none" xmlns="http://www.w3.org/2000/svg">
<g clip-path="url(#clip0_9_1097)">
<rect width="390" height="661" fill="#C638A3"/>
<path d="M303.837 215.878C304.105 215.812 304.376 215.975 304.443 216.243C304.509 216.511 304.346 216.782 304.077 216.849L303.837 215.878ZM317.504 262.275L317.005 262.24L317.504 262.275ZM293.957 281.465L294.002 280.967L293.957 281.465ZM294.776 271.094L295.256 270.953L294.776 271.094ZM290.462 304.38L290.036 304.118L290.462 304.38ZM267.424 322.512L267.304 322.027L267.424 322.512ZM250.466 326.247C250.222 326.118 250.129 325.816 250.258 325.572L252.36 321.593C252.488 321.348 252.791 321.255 253.035 321.384C253.279 321.513 253.373 321.816 253.244 322.06L251.376 325.597L254.913 327.465C255.157 327.594 255.25 327.896 255.121 328.14C254.992 328.385 254.69 328.478 254.445 328.349L250.466 326.247ZM304.077 216.849C303.572 216.974 303.207 217.187 302.944 217.462C302.681 217.738 302.493 218.104 302.387 218.576C302.171 219.538 302.305 220.877 302.752 222.554C303.641 225.896 305.688 230.299 308.026 235.09C310.353 239.861 312.96 244.998 314.924 249.75C316.879 254.483 318.24 258.931 318.003 262.31L317.005 262.24C317.225 259.118 315.955 254.866 313.999 250.132C312.051 245.418 309.466 240.322 307.127 235.529C304.798 230.756 302.704 226.264 301.785 222.812C301.327 221.092 301.141 219.56 301.412 218.356C301.549 217.744 301.808 217.203 302.221 216.771C302.635 216.338 303.177 216.041 303.837 215.878L304.077 216.849ZM318.003 262.31C317.615 267.837 315.401 273.101 311.36 276.813C307.312 280.532 301.471 282.653 293.912 281.963L294.002 280.967C301.316 281.635 306.867 279.582 310.684 276.076C314.508 272.563 316.632 267.553 317.005 262.24L318.003 262.31ZM293.912 281.963C291.159 281.711 289.065 280.834 287.541 279.564C286.017 278.294 285.09 276.654 284.633 274.927C283.725 271.499 284.651 267.661 286.496 265.501L287.257 266.151C285.641 268.042 284.769 271.535 285.599 274.671C286.01 276.224 286.836 277.675 288.181 278.795C289.525 279.916 291.418 280.731 294.002 280.967L293.912 281.963ZM286.496 265.501C287.235 264.637 288.07 264.134 288.963 264.021C289.856 263.907 290.727 264.193 291.516 264.753C293.076 265.86 294.415 268.097 295.256 270.953L294.296 271.235C293.485 268.477 292.235 266.489 290.938 265.569C290.299 265.116 289.675 264.938 289.089 265.013C288.504 265.087 287.878 265.423 287.257 266.151L286.496 265.501ZM295.256 270.953C299.117 284.078 296.25 295.934 290.887 304.642L290.036 304.118C295.27 295.619 298.068 284.055 294.296 271.235L295.256 270.953ZM290.887 304.642C285.748 312.988 278.395 320.304 267.545 322.997L267.304 322.027C277.816 319.418 284.981 312.327 290.036 304.118L290.887 304.642ZM267.545 322.997C264.818 323.674 261.905 324.101 259.058 324.555C256.198 325.011 253.4 325.495 250.847 326.283L250.552 325.327C253.18 324.516 256.043 324.024 258.9 323.568C261.769 323.11 264.629 322.691 267.304 322.027L267.545 322.997Z" fill="white"/>
<g clip-path="url(#clip1_9_1097)">
<path d="M331.5 140C375.959 140 412 103.959 412 59.5C412 15.0411 375.959 -21 331.5 -21C287.041 -21 251 15.0411 251 59.5C251 103.959 287.041 140 331.5 140Z" fill="url(#paint0_linear_9_1097)"/>
<path d="M307.779 127.496L311.107 126.369L317.708 124.168L324.362 122.022C328.119 120.787 331.876 119.607 335.632 118.426L329.514 107.907C329.514 107.907 372.716 94.5979 376.526 93.4173L370.408 82.8986L372.394 82.3083C376.848 80.9666 381.303 79.6249 385.757 78.337L392.465 76.4049L399.174 74.5266L402.555 73.6143L405.936 72.702C406.311 72.5946 406.687 72.4873 407.116 72.3799C408.78 62.7199 408.565 52.5233 406.258 42.3803C400.945 19.1426 385.542 0.788608 365.739 -9.08606L365.471 -8.97873L360.265 -7.04673C356.777 -5.75873 353.289 -4.52439 349.8 -3.29006C346.312 -2.05573 342.77 -0.875059 339.282 0.305608L329.514 3.52561L335.149 13.0783L335.632 13.8833L334.72 14.1516C327.099 16.5666 319.425 18.9279 311.751 21.3429L289.64 27.9976L295.114 37.4966L295.543 38.2479L294.685 38.5163C290.821 39.6433 286.903 40.7166 283.039 41.8436C279.175 42.9706 275.257 44.0439 271.393 45.1173C267.476 46.1906 263.612 47.2103 259.694 48.1763L255.508 49.1959C254.274 58.1046 254.649 67.3889 256.742 76.6733C262.431 101.36 279.39 120.519 301.017 129.911C302.144 129.535 303.325 129.106 304.452 128.73L307.779 127.496Z" fill="url(#paint1_linear_9_1097)"/>
<path d="M403.252 75.7609L399.925 76.8879L393.324 79.0883L386.669 81.2349C382.913 82.4693 379.156 83.6499 375.399 84.8306L381.517 95.3493C381.517 95.3493 338.316 108.659 334.505 109.839L339.55 118.533L340.623 120.358L338.638 120.948C334.183 122.29 329.729 123.632 325.275 124.92L318.566 126.852L311.858 128.73L308.477 129.642L305.096 130.555C304.667 130.662 304.184 130.823 303.754 130.93C317.6 136.297 333.11 137.746 348.673 134.204C378.995 127.227 400.945 103.185 406.741 74.5266C406.687 74.5266 406.633 74.5803 406.58 74.5803L403.252 75.7609Z" fill="url(#paint2_linear_9_1097)"/>
<path d="M268.334 20.6991L267.851 19.8941L268.764 19.6258C276.384 17.2108 284.059 14.8494 291.733 12.4881L313.844 5.72609L308.37 -3.82658L307.94 -4.57791L308.799 -4.84624C312.663 -5.97324 316.581 -7.04658 320.445 -8.17358C324.309 -9.30058 328.226 -10.3739 332.09 -11.3936C334.022 -11.9302 336.008 -12.4132 337.94 -12.9499C339.872 -13.4866 341.858 -13.9696 343.79 -14.4526L347.815 -15.4186C337.135 -17.7262 325.758 -17.8336 314.38 -15.2039C287.332 -9.03224 266.939 10.7708 258.728 35.2964C263.826 33.5791 268.871 31.9154 273.969 30.1981L268.334 20.6991Z" fill="url(#paint3_linear_9_1097)"/>
<path d="M271.179 44.2586C275.043 43.1316 278.907 41.9509 282.771 40.7703L293.504 37.4429L287.869 27.9439L287.386 27.1389L288.298 26.8706L311.268 19.7329C318.62 17.4789 326.026 15.1713 333.378 12.9709L327.904 3.47192L327.475 2.77426L328.28 2.55959L338.906 -0.714076C342.448 -1.84108 345.99 -2.91441 349.478 -4.09508C353.02 -5.22208 356.562 -6.29541 360.051 -7.47608L365.364 -9.24708C363.539 -10.1594 361.661 -10.9644 359.729 -11.7694L353.933 -10.1057C350.069 -9.03241 346.205 -7.79808 342.341 -6.72474C338.477 -5.59774 334.613 -4.41708 330.749 -3.23641L320.015 0.0909243L325.597 9.58992L326.08 10.3949L325.167 10.6633L302.252 17.8009C294.899 20.0549 287.493 22.3626 280.141 24.5629L285.615 34.0619L286.044 34.7596L285.239 35.0279C278.155 37.2283 271.071 39.3213 264.041 41.6289C261.519 42.4339 258.943 43.2389 256.42 44.0976C256.098 45.6539 255.83 47.2103 255.615 48.7666L259.587 47.6396C263.451 46.5663 267.315 45.3319 271.179 44.2586Z" fill="url(#paint4_linear_9_1097)"/>
<path d="M284.059 34.062L278.37 24.5093L277.887 23.7043L278.799 23.436C286.42 21.021 294.094 18.6596 301.769 16.2983L323.879 9.53631L318.405 0.0373106L317.976 -0.714024L318.835 -0.982357C322.699 -2.10936 326.616 -3.18269 330.48 -4.30969C334.344 -5.43669 338.262 -6.51002 342.126 -7.52969C344.058 -8.06636 346.044 -8.54936 347.976 -9.08602C349.908 -9.62269 351.893 -10.1057 353.825 -10.5887L359.299 -11.9304C355.811 -13.272 352.215 -14.399 348.512 -15.2577L343.897 -13.9697C340.033 -12.8964 336.169 -11.662 332.305 -10.5887C328.441 -9.46169 324.577 -8.28102 320.713 -7.10036L309.98 -3.77302L315.561 5.72598L316.044 6.53098L315.132 6.79931L292.216 13.9906C284.864 16.2446 277.458 18.5523 270.105 20.7526L275.579 30.2516L276.009 30.9493L275.204 31.2176C269.622 32.935 263.987 34.6523 258.406 36.4233C257.655 38.731 257.064 41.0923 256.528 43.4536C258.943 42.595 261.358 41.7363 263.773 40.8776C270.481 38.5163 277.243 36.2623 284.059 34.062Z" fill="url(#paint5_linear_9_1097)"/>
<path d="M285.239 35.0279L286.044 34.7596L285.615 34.0619L280.141 24.5629C287.547 22.3626 294.899 20.0549 302.252 17.8009L325.221 10.6632L326.133 10.3949L325.65 9.58991L320.069 0.0909138L330.802 -3.23642C334.666 -4.41709 338.53 -5.59775 342.394 -6.72475C346.258 -7.85175 350.122 -9.03242 353.986 -10.1058L359.782 -11.7694C359.621 -11.8231 359.46 -11.8768 359.299 -11.9304L353.825 -10.5888C351.893 -10.1058 349.908 -9.62275 347.976 -9.08609C346.044 -8.60309 344.058 -8.06642 342.126 -7.52975C338.208 -6.45642 334.344 -5.38309 330.48 -4.30975C326.616 -3.18275 322.699 -2.10942 318.835 -0.98242L317.976 -0.714087L318.405 0.0372477L323.879 9.53625L301.769 16.2446C294.094 18.6059 286.474 20.9672 278.799 23.3822L277.887 23.6506L278.37 24.4556L284.005 34.0082C277.243 36.2622 270.481 38.4626 263.719 40.8239C261.304 41.6826 258.889 42.5412 256.474 43.3999C256.42 43.6146 256.367 43.8292 256.313 44.0439C258.835 43.2389 261.411 42.4339 263.934 41.5752C271.071 39.3749 278.155 37.2282 285.239 35.0279Z" fill="url(#paint6_linear_9_1097)"/>
<path d="M275.955 30.9493L275.526 30.2517L270.105 20.7527C277.511 18.5523 284.864 16.2447 292.216 13.9907L315.185 6.85301L316.098 6.58468L315.615 5.77968L310.033 -3.71932L320.767 -7.04666C324.631 -8.22732 328.495 -9.40799 332.359 -10.535C336.223 -11.662 340.087 -12.8427 343.951 -13.916L348.566 -15.204C348.298 -15.2577 348.083 -15.3113 347.815 -15.365L343.79 -14.399C341.858 -13.916 339.872 -13.433 337.94 -12.8963C336.008 -12.4133 334.022 -11.8767 332.09 -11.34C328.173 -10.2667 324.309 -9.19332 320.445 -8.11999C316.581 -6.99299 312.663 -5.91966 308.799 -4.79266L307.94 -4.52432L308.37 -3.77299L313.844 5.72601L291.733 12.4343C284.059 14.7957 276.438 17.157 268.764 19.572L267.851 19.8403L268.334 20.6453L273.969 30.198C268.871 31.8617 263.773 33.579 258.728 35.2963C258.621 35.672 258.513 36.0477 258.352 36.4233C263.934 34.6523 269.569 32.935 275.15 31.2177L275.955 30.9493Z" fill="url(#paint7_linear_9_1097)"/>
<path d="M365.364 -9.30066L360.051 -7.52966C356.562 -6.34899 353.02 -5.27566 349.478 -4.14866C345.936 -3.02166 342.448 -1.89466 338.906 -0.767658L328.28 2.45234L327.475 2.66701L327.904 3.36468L333.378 12.8637C325.972 15.064 318.62 17.3717 311.268 19.6257L288.298 26.8707L287.386 27.139L287.869 27.944L293.45 37.443L282.717 40.7703C278.853 41.951 274.989 43.1317 271.125 44.2587C267.261 45.3857 263.397 46.5663 259.533 47.6397L255.562 48.7667C255.562 48.874 255.508 49.035 255.508 49.1423L259.694 48.1227C263.612 47.1567 267.529 46.137 271.393 45.0637C275.311 43.9903 279.175 42.917 283.039 41.79C286.903 40.663 290.821 39.5897 294.685 38.4627L295.543 38.1943L295.114 37.443L289.64 27.9977L311.751 21.2357C319.425 18.8743 327.046 16.513 334.72 14.0443L335.632 13.776L335.149 12.971L329.514 3.41834L339.282 0.198341C342.77 -0.982326 346.312 -2.16299 349.8 -3.39733C353.289 -4.63166 356.777 -5.86599 360.265 -7.15399L365.471 -9.08599L365.739 -9.19333C365.578 -9.19333 365.471 -9.24699 365.364 -9.30066Z" fill="url(#paint8_linear_9_1097)"/>
<path d="M405.936 72.6483L402.555 73.5606L399.174 74.473L392.465 76.3513L385.757 78.2833C381.303 79.5713 376.848 80.913 372.394 82.2546L370.408 82.845L376.526 93.3636C372.77 94.5443 329.514 107.854 329.514 107.854L335.632 118.372C331.876 119.553 328.119 120.734 324.362 121.968L317.708 124.115L311.107 126.315L307.779 127.442L304.506 128.569C303.379 128.945 302.198 129.374 301.071 129.75C301.983 130.125 302.842 130.501 303.754 130.877C304.184 130.769 304.667 130.608 305.096 130.501L308.477 129.589L311.858 128.676L318.566 126.798L325.275 124.866C329.729 123.578 334.183 122.236 338.638 120.895L340.623 120.304L339.55 118.48L334.505 109.786C338.262 108.605 381.517 95.2956 381.517 95.2956L375.399 84.777C379.156 83.5963 382.913 82.4156 386.669 81.1813L393.324 79.0346L399.925 76.8343L403.252 75.7073L406.526 74.5803C406.58 74.5803 406.633 74.5266 406.687 74.5266C406.848 73.7753 406.955 73.0776 407.116 72.3263C406.687 72.4336 406.311 72.541 405.936 72.6483Z" fill="url(#paint9_linear_9_1097)"/>
<path d="M333.486 30.0907C333.486 30.0907 336.545 21.7723 338.423 18.8743C340.301 15.9763 341.16 14.1517 344.917 13.0247C348.673 11.9513 351.249 13.0783 353.074 16.03C354.899 18.9817 359.138 28.6417 365.042 31.4323C370.891 34.223 372.34 32.1837 370.462 27.0317C368.637 21.8797 373.306 26.978 373.199 30.5737C373.145 34.1693 383.61 47.3713 386.616 54.4553C389.621 61.5393 389.943 61.3247 390.694 60.949C391.446 60.627 390.587 57.1387 388.977 57.6217C388.977 57.6217 398.422 54.2407 399.979 59.6073C401.535 64.974 400.247 65.4033 397.993 66.0473C395.417 66.7987 393.914 67.389 384.684 59.6073C373.467 50.2693 349.049 18.928 333.486 30.0907Z" fill="url(#paint10_linear_9_1097)"/>
<path d="M333.486 30.0907C334.291 27.944 335.149 25.7437 336.062 23.6507C336.974 21.504 337.994 19.411 339.335 17.5327C339.979 16.5667 340.623 15.6007 341.482 14.8494C342.341 14.098 343.414 13.5614 344.541 13.2394C345.668 12.8637 346.795 12.649 347.976 12.7027C349.156 12.7564 350.283 13.1857 351.196 13.8834C352.108 14.581 352.859 15.547 353.396 16.5667C353.986 17.5864 354.523 18.606 355.06 19.6257C356.187 21.665 357.367 23.6507 358.709 25.529C360.051 27.4074 361.553 29.1784 363.485 30.52C364.398 31.2177 365.471 31.7007 366.544 32.0764C367.618 32.452 368.745 32.8277 369.872 32.613C370.408 32.5057 370.891 32.0764 370.999 31.5397C371.16 31.003 371.16 30.4127 371.052 29.876C370.891 28.749 370.516 27.6757 370.14 26.5487C370.033 26.2804 369.979 25.9584 369.925 25.69C369.925 25.529 369.872 25.368 369.925 25.207C369.925 25.046 370.033 24.8314 370.301 24.8314C370.677 24.885 370.838 25.1534 371.052 25.368C371.267 25.5827 371.428 25.7974 371.589 26.0657C372.287 27.0317 372.77 28.105 373.092 29.232C373.253 29.7687 373.253 30.4127 373.306 30.9494C373.36 31.486 373.575 32.0227 373.789 32.5594C374.219 33.6327 374.755 34.6524 375.346 35.6184C376.473 37.604 377.761 39.5897 378.995 41.5217C381.464 45.4394 384.093 49.2497 386.186 53.382C387.206 55.475 388.011 57.6217 389.084 59.661C389.353 60.144 389.675 60.7344 390.05 60.949C390.158 61.0027 390.265 61.0027 390.372 60.949C390.426 60.949 390.48 60.8954 390.587 60.8954C390.641 60.8417 390.641 60.8417 390.694 60.788C390.802 60.627 390.802 60.305 390.802 60.0367C390.748 59.5 390.587 58.9634 390.265 58.4804C390.104 58.2657 389.943 58.051 389.728 57.89C389.514 57.7827 389.245 57.729 389.031 57.7827C388.977 57.7827 388.87 57.729 388.87 57.6754C388.87 57.6217 388.87 57.5144 388.977 57.5144C390.963 56.8704 393.002 56.441 395.095 56.4947C396.115 56.4947 397.188 56.7094 398.154 57.1924C399.12 57.6754 399.818 58.5877 400.14 59.6074C400.408 60.627 400.676 61.593 400.784 62.6664C400.837 63.203 400.837 63.7397 400.73 64.2227C400.623 64.7594 400.301 65.2424 399.818 65.5107C399.335 65.779 398.852 65.94 398.369 66.101C397.886 66.262 397.403 66.423 396.866 66.4767C395.846 66.6914 394.719 66.5304 393.753 66.101C391.821 65.296 390.158 64.0617 388.494 62.8274C386.83 61.593 385.274 60.2514 383.718 58.9097C380.659 56.1727 377.761 53.1674 374.863 50.2694C369.013 44.4734 363.11 38.6237 356.348 33.901C354.684 32.7204 352.913 31.647 351.088 30.681C349.264 29.715 347.385 28.91 345.346 28.3734C343.36 27.8367 341.267 27.622 339.228 27.8904C337.135 28.105 335.149 28.91 333.486 30.0907ZM333.486 30.0907C335.149 28.91 337.135 28.105 339.174 27.8367C341.214 27.5684 343.307 27.783 345.292 28.3197C347.278 28.8564 349.21 29.6614 351.035 30.6274C352.859 31.5934 354.63 32.6667 356.294 33.8474C363.056 38.57 369.013 44.366 374.863 50.162C377.814 53.06 380.659 56.0117 383.771 58.7487C385.328 60.0904 386.938 61.3784 388.548 62.6127C390.211 63.847 391.875 65.0814 393.753 65.8327C395.632 66.745 397.832 66.0474 399.603 65.1887C400.462 64.652 400.569 63.525 400.462 62.5054C400.354 61.4857 400.086 60.466 399.818 59.5C399.549 58.534 398.852 57.729 397.939 57.246C397.027 56.763 396.007 56.602 394.988 56.602C392.948 56.602 390.909 56.9777 388.977 57.6217L388.87 57.3534C389.192 57.2997 389.514 57.2997 389.836 57.4607C390.104 57.6217 390.319 57.89 390.48 58.1047C390.802 58.6414 391.016 59.178 391.07 59.822C391.07 60.144 391.124 60.466 390.909 60.788C390.855 60.8954 390.748 60.949 390.694 61.0027C390.641 61.0564 390.587 61.0564 390.48 61.11C390.319 61.1637 390.104 61.2174 389.943 61.11C389.353 60.7344 389.138 60.1977 388.816 59.7147C387.743 57.6754 386.884 55.475 385.918 53.382C383.879 49.2497 381.249 45.3857 378.78 41.5217C377.546 39.5897 376.258 37.604 375.131 35.6184C374.541 34.5987 374.004 33.579 373.575 32.5057C373.36 31.969 373.145 31.4324 373.092 30.7884C373.038 30.198 373.038 29.6614 372.877 29.071C372.609 27.944 372.072 26.9244 371.428 25.9584C371.106 25.529 370.73 24.9924 370.247 24.8314C370.086 24.7777 370.086 25.207 370.086 25.4217C370.14 25.69 370.194 25.9584 370.301 26.2267C370.677 27.3 371.052 28.427 371.213 29.6077C371.267 30.198 371.267 30.7884 371.106 31.3787C370.945 31.969 370.462 32.452 369.818 32.5594C368.637 32.774 367.457 32.3984 366.383 32.0227C365.31 31.5934 364.237 31.1104 363.271 30.4127C361.339 29.071 359.836 27.2464 358.494 25.368C357.153 23.4897 355.972 21.504 354.845 19.4647C354.308 18.445 353.772 17.4254 353.181 16.4057C352.591 15.386 351.893 14.4737 350.981 13.776C350.069 13.0784 348.942 12.649 347.815 12.5954C346.688 12.5417 345.507 12.7564 344.434 13.0784C343.36 13.4004 342.287 13.937 341.428 14.6884C340.57 15.4397 339.872 16.4057 339.282 17.3717C337.94 19.25 336.92 21.343 336.008 23.4897C335.149 25.7974 334.291 27.944 333.486 30.0907Z" fill="#E0013F"/>
<path d="M402.34 69.2673C402.125 69.5893 401.803 69.8576 401.481 70.0723C400.837 70.5016 400.032 70.77 399.281 70.9846C397.778 71.4676 396.168 71.736 394.612 71.6287C393.056 71.5213 391.499 71.1457 389.997 70.5553C389.245 70.287 388.548 69.965 387.796 69.643L385.703 68.516C382.966 66.9597 380.39 65.0813 377.922 63.1493C375.453 61.1637 373.092 59.0706 370.784 56.924C366.115 52.6843 361.446 48.391 356.616 44.3123C354.201 42.273 351.679 40.2873 348.995 38.6236C347.654 37.8186 346.205 37.0673 344.702 36.5843C343.146 36.155 341.482 36.0477 339.926 36.5843C339.55 36.6917 339.174 36.9063 338.799 37.121C338.477 37.3893 338.155 37.765 338.101 38.1943C338.047 38.6237 338.155 39.1066 338.369 39.4286C338.477 39.6433 338.584 39.8043 338.691 39.9653C338.799 40.1263 338.96 40.2873 339.067 40.4483C339.604 41.0923 340.194 41.5753 340.838 42.112C341.482 42.595 342.126 43.078 342.77 43.5073C345.4 45.2783 348.19 46.781 351.035 48.23C353.879 49.679 356.723 51.0207 359.621 52.3087C360.319 52.6307 361.07 52.9526 361.768 53.2746C362.466 53.5966 363.056 54.0796 363.485 54.67C363.915 55.2603 364.29 55.958 364.451 56.6556C364.559 57.0313 364.612 57.407 364.72 57.7826C364.773 58.1583 364.827 58.534 364.827 58.9096C364.934 60.466 364.72 62.0223 364.505 63.525L364.398 64.1153L364.344 64.3837C364.344 64.491 364.29 64.652 364.29 64.7593C364.344 65.296 364.612 65.7253 364.934 66.0473C365.578 66.6913 366.276 67.067 367.027 67.4426C368.476 68.1403 369.979 68.677 371.482 69.16C372.984 69.643 374.541 70.0723 376.097 70.448C379.156 71.253 382.269 71.897 385.381 72.4873C386.938 72.8093 388.494 73.0777 390.05 73.346L389.889 73.3996L389.299 73.5606L386.991 74.2046L363.163 80.9667L340.087 87.514L338.906 83.2743L349.908 63.4177L350.82 61.754L348.995 62.2906L334.13 66.5303L333.056 62.8273L355.006 56.4946L356.24 60.6806L345.292 80.591L344.487 82.04L346.097 81.557L362.573 76.7806L363.968 76.3513C366.866 75.6 369.872 75.117 372.877 74.8487L375.829 74.5803L373.038 73.7216C371.911 73.3997 370.838 73.024 369.711 72.541C368.637 72.1117 367.564 71.6287 366.491 71.092C365.954 70.8237 365.471 70.5553 364.934 70.287C364.451 69.965 363.915 69.6966 363.432 69.3746C362.466 68.7306 361.553 68.033 360.856 67.1743C360.158 66.3157 359.782 65.296 359.782 64.169C359.729 63.042 359.997 61.915 360.158 60.7343C360.373 59.5537 360.48 58.2656 360.265 57.0313C359.997 55.797 359.353 54.4553 357.904 53.9723H357.958C353.074 52.255 348.19 50.2157 343.575 47.8543C341.267 46.6737 339.013 45.3857 336.867 43.883C335.793 43.1316 334.774 42.3267 333.861 41.4143C332.949 40.502 332.09 39.536 331.554 38.3553C331.285 37.765 331.124 37.1747 331.071 36.5843C331.017 35.994 331.178 35.35 331.393 34.7596C331.554 34.1693 331.876 33.579 332.198 33.0423C332.573 32.5593 333.003 32.0763 333.486 31.7006C334.505 30.8956 335.686 30.4663 336.974 30.1443C338.208 29.876 339.55 29.8223 340.838 29.876C343.414 30.037 345.99 30.681 348.351 31.7006C349.532 32.2373 350.713 32.8276 351.786 33.579C352.859 34.2766 353.825 35.189 354.791 36.0477C358.763 39.4823 362.841 42.756 366.759 46.2443C368.745 47.9617 370.623 49.7327 372.501 51.611C374.38 53.4356 375.99 55.475 377.868 57.3533C379.693 59.2316 381.625 61.0026 383.664 62.6663C385.703 64.33 387.796 65.8863 390.05 67.2817C391.177 67.9257 392.358 68.5696 393.592 68.999C394.183 69.2136 394.827 69.3746 395.524 69.4283C396.168 69.482 396.812 69.2673 397.456 69.1063C398.691 68.7306 399.925 68.0867 400.73 67.067C400.945 66.7987 401.052 66.5303 401.267 66.2083C401.481 65.94 401.911 65.94 402.125 66.1546C402.233 66.262 402.286 66.423 402.34 66.584L402.501 67.067L402.394 66.584C402.34 66.423 402.286 66.262 402.179 66.1546C401.964 65.94 401.481 65.94 401.32 66.2083C401.159 66.4767 400.998 66.7986 400.784 67.0133C399.979 68.033 398.744 68.677 397.51 69.0527C396.866 69.2136 396.222 69.4283 395.578 69.3746C394.934 69.321 394.29 69.16 393.7 68.9453C392.465 68.516 391.338 67.872 390.211 67.1743C387.957 65.8327 385.864 64.2226 383.879 62.559C381.893 60.8953 379.961 59.1243 378.083 57.246C376.258 55.4213 374.594 53.3283 372.716 51.5037C370.891 49.6253 368.959 47.8543 366.974 46.137C363.056 42.6486 358.977 39.375 355.06 35.8866C351.303 32.1836 346.205 29.876 340.945 29.5003C339.604 29.393 338.316 29.4466 336.974 29.715C335.686 29.9833 334.398 30.4663 333.325 31.2713C332.788 31.647 332.305 32.1836 331.929 32.7203C331.554 33.3106 331.232 33.901 331.017 34.545C330.802 35.189 330.641 35.833 330.641 36.5306C330.641 37.2283 330.856 37.926 331.124 38.5163C331.661 39.7507 332.573 40.824 333.486 41.7363C334.452 42.6487 335.471 43.5073 336.545 44.2586C338.691 45.815 340.945 47.1566 343.307 48.3373C347.976 50.7523 352.806 52.8453 357.743 54.67H357.797C357.958 54.7236 358.226 54.8847 358.387 54.992C358.602 55.153 358.763 55.314 358.924 55.5823C359.192 56.0116 359.407 56.5483 359.514 57.085C359.729 58.1583 359.568 59.2853 359.353 60.466C359.138 61.6467 358.87 62.8273 358.924 64.0616C358.924 64.3836 358.924 64.7057 359.031 65.0277C359.085 65.1887 359.085 65.3496 359.138 65.5106L359.299 65.9937C359.514 66.584 359.836 67.1743 360.212 67.6573C361.017 68.677 361.983 69.4283 363.002 70.126C363.485 70.5017 364.022 70.77 364.559 71.092C365.095 71.414 365.632 71.6823 366.169 71.9506C367.242 72.4873 368.315 72.9703 369.442 73.4533C369.764 73.5606 370.086 73.7216 370.408 73.829C367.671 74.151 364.988 74.6876 362.305 75.439L358.87 76.405H358.977L347.493 79.625L357.85 60.949L358.011 60.6806L357.904 60.4123L356.401 55.2066L356.187 54.509L355.489 54.7237L332.037 61.3783L331.285 61.593L331.5 62.3443L333.003 67.55L333.217 68.3013L333.969 68.0867L347.761 64.1153L337.564 82.6303L337.403 82.8987L337.511 83.167L339.013 88.3727L339.228 89.0703L339.926 88.8556L363.7 81.9863L387.421 75.0633L389.782 74.3657L390.265 74.2046L390.587 74.0973C390.748 74.0436 390.963 73.9363 391.07 73.7753C391.338 73.4533 391.392 73.024 391.177 72.6483C391.07 72.4873 390.963 72.3263 390.748 72.219C390.587 72.1116 390.319 72.1116 390.265 72.058C388.709 71.7896 387.152 71.5213 385.596 71.253C382.483 70.6626 379.424 70.0723 376.365 69.321C374.863 68.9453 373.306 68.5696 371.804 68.0867C370.301 67.6036 368.798 67.1206 367.457 66.423C366.759 66.101 366.115 65.7253 365.578 65.1887C365.31 64.9203 365.149 64.652 365.149 64.4373C365.149 64.3836 365.149 64.33 365.149 64.2227L365.203 63.9006L365.31 63.3103C365.578 61.754 365.739 60.144 365.632 58.4803C365.578 58.051 365.578 57.6753 365.525 57.246C365.417 56.8703 365.417 56.441 365.256 56.0653C365.042 55.2603 364.666 54.509 364.129 53.865C363.593 53.221 362.895 52.6843 362.144 52.3087C361.392 51.933 360.695 51.6646 359.943 51.3427C357.045 50.0547 354.201 48.7666 351.357 47.3713C348.512 45.976 345.722 44.4733 343.092 42.756C341.804 41.8973 340.516 40.9313 339.496 39.8043C339.389 39.6433 339.282 39.4823 339.121 39.375C339.013 39.214 338.906 39.053 338.852 38.892C338.691 38.57 338.584 38.1943 338.638 37.8723C338.691 37.5503 338.906 37.2283 339.174 37.0136C339.496 36.799 339.818 36.638 340.194 36.5306C341.643 35.994 343.253 36.1013 344.756 36.477C346.258 36.9063 347.654 37.604 348.995 38.409C351.679 40.019 354.147 42.0046 356.616 44.044C361.446 48.069 366.115 52.3623 370.838 56.602C373.199 58.7487 375.56 60.8417 378.029 62.7737C380.551 64.7057 383.074 66.584 385.864 68.1403L387.957 69.2137C388.709 69.5357 389.406 69.8577 390.158 70.126C391.66 70.6627 393.217 71.0383 394.773 71.1456C396.329 71.253 397.939 70.9846 399.442 70.5016C400.193 70.287 400.945 70.0187 401.642 69.5893C401.803 69.8577 402.125 69.5893 402.34 69.2673C402.555 68.9453 402.716 68.5697 402.716 68.1403C402.716 68.516 402.555 68.9453 402.34 69.2673Z" fill="white"/>
<path d="M402.716 68.1404L402.286 66.5841C402.125 66.0474 401.374 65.9937 401.159 66.4767C400.462 67.9794 398.798 69.0527 396.222 69.5357C392.251 70.2871 381.571 61.8078 375.346 54.7238C369.12 47.6398 359.246 40.1264 353.879 35.2427C346.795 28.8027 332.466 27.0854 330.91 35.9404C329.353 44.7417 357.797 54.5627 357.797 54.5627C357.797 54.5627 360.534 55.2067 359.836 60.0367C359.138 64.8667 357.367 67.9258 368.315 72.7021C369.925 73.3997 371.428 73.9364 372.823 74.3657C369.55 74.6341 365.954 75.2244 362.305 76.2441H362.358L345.883 80.9667L356.992 60.8417L355.489 55.6361L332.09 62.3444L333.593 67.5501L349.21 63.0957L338.101 83.2207L339.604 88.4264L387.152 74.7951C388.172 74.4731 389.299 74.1511 390.265 73.8827C390.802 73.7217 390.748 72.9704 390.211 72.8631C383.449 71.7361 363.968 68.1941 364.666 64.4911C366.437 55.0457 363.11 53.4357 361.231 52.6307C342.072 44.3124 334.237 38.3017 340.355 36.5844C346.527 34.8134 354.147 41.7364 372.126 58.1584C390.104 74.5267 396.329 71.7897 399.657 70.8237C402.984 69.8577 402.716 68.1404 402.716 68.1404Z" fill="url(#paint11_linear_9_1097)"/>
<path d="M401.481 70.0723C400.837 70.5017 400.032 70.77 399.281 70.9847C397.778 71.4677 396.168 71.736 394.612 71.6287C391.446 71.414 388.44 70.0723 385.703 68.5697C380.229 65.4033 375.399 61.2173 370.73 56.9777C366.061 52.738 361.392 48.4447 356.562 44.366C354.147 42.3803 351.625 40.3947 348.942 38.731C347.6 37.926 346.151 37.1747 344.648 36.7453C343.146 36.316 341.482 36.2087 339.979 36.7453C339.282 37.0137 338.423 37.3893 338.262 38.248C338.155 39.053 338.691 39.8043 339.174 40.3947C340.248 41.5753 341.536 42.5413 342.824 43.4C345.453 45.171 348.244 46.6737 351.088 48.069C353.933 49.518 356.777 50.806 359.675 52.094C361.07 52.738 362.68 53.221 363.646 54.509C364.612 55.7433 364.988 57.3533 365.042 58.9097C365.149 60.466 364.988 62.076 364.72 63.6323C364.666 64.008 364.559 64.3837 364.559 64.813C364.612 65.2423 364.827 65.618 365.095 65.8863C365.686 66.4767 366.383 66.8523 367.081 67.228C369.925 68.5697 373.038 69.4283 376.097 70.1797C379.156 70.931 382.269 71.575 385.381 72.1653C386.938 72.4337 388.494 72.7557 390.05 72.9703C390.48 72.9703 390.694 73.4533 390.426 73.7217C390.319 73.8827 390.104 73.8827 389.943 73.9363L389.353 74.0973L387.099 74.7413L386.83 74.795L339.657 88.319L338.208 83.2207L349.317 63.0957L349.425 62.881L349.21 62.9347L333.7 67.389L332.251 62.3443L355.489 55.6897L356.938 60.788L345.829 80.9667L345.722 81.1277L345.883 81.074L362.358 76.3513L362.734 76.244H362.68C365.954 75.3317 369.389 74.7413 372.77 74.473L373.092 74.4193L372.77 74.312C370.516 73.6143 368.315 72.702 366.169 71.6823C364.076 70.609 361.929 69.4283 360.426 67.6037C359.675 66.6913 359.299 65.5107 359.246 64.33C359.192 63.1493 359.46 61.9687 359.675 60.788C359.89 59.6073 359.997 58.4267 359.782 57.246C359.568 56.0653 358.924 54.8847 357.689 54.509C352.752 52.738 347.922 50.6987 343.307 48.2837C340.999 47.0493 338.691 45.7613 336.598 44.2587C334.505 42.7023 332.412 40.985 331.285 38.6237C331.017 38.0333 330.856 37.3893 330.802 36.7453C330.802 36.1013 330.91 35.4573 331.124 34.8133C331.285 34.1693 331.607 33.6327 331.983 33.0423C332.359 32.5057 332.788 32.0227 333.325 31.647C335.418 30.037 338.208 29.715 340.784 29.876C345.99 30.2517 351.088 32.452 354.791 36.155C358.763 39.5897 362.841 42.8633 366.705 46.3517C368.637 48.069 370.569 49.84 372.448 51.7183C374.326 53.543 375.936 55.5823 377.814 57.4607C381.517 61.1637 385.489 64.5983 389.943 67.3353C391.07 68.033 392.251 68.6233 393.431 69.0527C393.753 69.16 394.075 69.2673 394.344 69.321L395.31 69.482C395.954 69.482 396.598 69.321 397.242 69.16C398.476 68.7843 399.71 68.194 400.515 67.1207C400.73 66.8523 400.837 66.584 401.052 66.262C401.267 65.9937 401.696 65.9937 401.911 66.2083C401.696 65.9937 401.213 65.9937 401.052 66.262C400.891 66.5303 400.73 66.8523 400.515 67.1207C399.71 68.1403 398.476 68.7843 397.242 69.16C396.598 69.3747 395.954 69.482 395.31 69.482C394.988 69.482 394.666 69.3747 394.344 69.321C394.022 69.2673 393.7 69.1063 393.431 69.0527C392.197 68.5697 391.016 67.9793 389.943 67.2817C385.489 64.5447 381.517 61.0563 377.814 57.3533C375.936 55.5287 374.326 53.4357 372.448 51.611C370.623 49.7327 368.691 47.9617 366.705 46.2443C362.788 42.756 358.709 39.4823 354.791 36.0477C351.035 32.3447 345.99 30.0907 340.731 29.7687C338.155 29.6077 335.364 29.9833 333.217 31.5933C332.681 31.969 332.251 32.5057 331.822 32.9887C331.446 33.5253 331.124 34.1157 330.963 34.7597C330.749 35.4037 330.641 36.0477 330.641 36.6917C330.695 37.3357 330.856 37.9797 331.124 38.57C332.251 40.985 334.398 42.7023 336.491 44.205C338.638 45.7077 340.892 47.0493 343.199 48.2837C347.868 50.6987 352.698 52.738 357.636 54.509C358.763 54.8847 359.407 56.0653 359.621 57.1923C359.836 58.373 359.729 59.5537 359.514 60.7343C359.353 61.915 359.085 63.0957 359.085 64.2763C359.085 65.457 359.514 66.6913 360.265 67.6037C361.768 69.482 363.915 70.6627 366.061 71.736C368.101 72.7557 370.194 73.6143 372.394 74.312C368.959 74.634 365.525 75.2243 362.197 76.1367L361.822 76.244H361.875L345.936 80.8057L356.992 60.8417V60.788V60.7343L355.489 55.5287V55.4213H355.382L331.983 62.1297L331.876 62.1833L331.929 62.2907L333.432 67.4963L333.486 67.6037L333.593 67.55L348.995 63.1493L337.994 83.1133V83.167V83.2207L339.496 88.4263V88.5337H339.604L387.099 74.9023L387.367 74.8487L389.353 74.2583L389.943 74.0973C390.104 74.0437 390.372 74.0437 390.48 73.829C390.641 73.668 390.641 73.3997 390.533 73.185C390.426 72.9703 390.211 72.863 389.997 72.863C388.44 72.5947 386.884 72.3263 385.328 72.058C382.215 71.4677 379.102 70.8237 376.043 70.0723C372.984 69.2673 369.925 68.4623 367.081 67.1207C366.383 66.745 365.686 66.3693 365.149 65.8327C364.881 65.5643 364.666 65.1887 364.612 64.8667C364.612 64.491 364.72 64.1153 364.773 63.686C365.042 62.1297 365.203 60.5197 365.095 58.9633C364.988 57.407 364.666 55.7433 363.646 54.509C362.68 53.1673 361.017 52.738 359.621 52.094C356.723 50.806 353.879 49.4643 351.035 48.069C348.19 46.6737 345.4 45.171 342.77 43.4C341.482 42.4877 340.194 41.5753 339.121 40.3947C338.638 39.8043 338.101 39.1067 338.208 38.3017C338.369 37.4967 339.174 37.0673 339.872 36.8527C341.375 36.3697 342.985 36.4233 344.541 36.8527C346.044 37.282 347.493 38.0333 348.834 38.8383C351.518 40.502 354.04 42.434 356.455 44.4733C361.339 48.4983 365.954 52.7917 370.677 57.0313C375.346 61.271 380.176 65.457 385.65 68.6233C388.387 70.1797 391.392 71.4677 394.558 71.6823C396.115 71.7897 397.725 71.5213 399.227 71.0383C400.086 70.77 400.837 70.5017 401.481 70.0723C402.125 69.643 402.716 68.999 402.716 68.1403C402.716 68.9453 402.125 69.643 401.481 70.0723Z" fill="#C2000B"/>
<path d="M336.008 86.7091L332.842 76.2441L335.686 86.7091L333.861 89.8754L315.776 94.8664L312.77 93.1491L311.482 88.4801L315.829 87.2457L316.42 89.3924L316.527 89.8754L317.01 89.7681L330.051 86.1187L330.588 85.9577L330.427 85.4211L328.978 80.2154L328.817 79.6251L328.226 79.7861L312.77 84.1331L310.194 83.2207L307.887 75.1171L307.672 74.4194H307.618L307.565 74.1511L307.135 72.5947L308.692 69.6431L326.455 64.4374L329.461 66.1011L330.802 70.6627L326.509 71.9507L325.865 69.8041L325.758 69.4284L325.382 69.5357C323.235 70.1797 321.035 70.8237 318.888 71.4677L312.395 73.4534L312.126 73.5607L312.18 73.8291L313.683 78.9274L313.736 79.1421L313.951 79.0884L329.514 74.4194L332.842 76.2441L329.568 74.3121L314.112 78.5517L312.824 73.9364L319.049 72.1654C321.089 71.5751 323.128 71.0384 325.167 70.4481L325.758 72.6484L325.865 73.0777L326.294 72.9704L331.5 71.5214L331.929 71.4141L331.822 70.9847L330.373 65.7791L330.319 65.5644L330.158 65.4571L326.831 63.5251L326.67 63.4177L326.455 63.4714L308.155 68.6234L307.887 68.6771L307.779 68.8917L305.955 72.2727L305.847 72.4874L305.901 72.7557L306.223 73.8827C303.164 74.7414 300.051 75.5464 296.992 76.4587L287.171 79.2494L286.313 79.5177L286.796 80.3227L292.216 89.7681L271.018 96.208L270.266 96.4227L270.481 97.1741L270.964 98.7304L271.179 99.4817L271.93 99.2671L283.898 95.5641L295.812 91.8074L296.724 91.5391L296.241 90.6804L290.606 81.1814L298.602 78.7127L306.813 76.1904L309.067 83.9721L309.175 84.2941L309.497 84.4014L312.609 85.5284L312.824 85.5821L313.039 85.5284L328.119 81.1277L329.3 85.1527L317.332 88.6411L316.742 86.5481L316.634 86.1187L316.205 86.2261L310.999 87.7287L310.57 87.8361L310.677 88.2654L312.18 93.4711L312.234 93.6321L312.395 93.6857L315.722 95.5104L315.883 95.5641L316.044 95.5104L334.237 90.0901H334.291L334.344 90.0364L336.169 86.7091L336.223 86.6554L336.008 86.7091Z" fill="white"/>
<path d="M332.895 76.244L329.568 74.3656L313.951 78.82L312.502 73.7216C316.151 72.6483 319.747 71.575 323.343 70.5553L325.489 69.965L326.241 72.541L331.446 71.0383L329.944 65.8326L326.616 63.9006L308.37 69.16L306.545 72.541L307.082 74.312C304.667 74.956 302.305 75.6536 299.89 76.3513C296.026 77.4783 292.109 78.5516 288.245 79.6786L287.386 79.947L287.815 80.6983L293.289 90.1973L271.179 96.9593L271.662 98.5156L294.631 91.378L295.543 91.1096L295.06 90.3046L289.479 80.8056L300.212 77.4783C302.574 76.727 304.935 76.0293 307.35 75.3316L309.765 83.811L312.878 84.938L328.548 80.43L330.051 85.6356L317.01 89.3923L316.259 86.8163L311.053 88.319L312.556 93.5246L315.883 95.3493L334.13 90.09L335.954 86.7626L332.895 76.244Z" fill="url(#paint12_linear_9_1097)"/>
<path d="M335.901 86.7627L334.076 90.09L315.829 95.2957L312.556 93.471L311.053 88.2654L316.205 86.8164L316.956 89.3387V89.3924H317.01L330.051 85.6894H330.105V85.6357L328.602 80.43V80.3764H328.548L312.878 84.8307L309.819 83.7037L307.404 75.278V75.2244H307.35L289.479 80.6984L289.372 80.752L289.425 80.8594L295.436 91.056L271.769 98.4084L271.34 97.0667L293.343 90.3047L293.45 90.251L293.397 90.1437L287.547 80.0007L297.153 77.21L306.974 74.4194H307.028V74.3657L306.545 72.5947L308.316 69.2674L326.563 64.008L329.89 65.8864L331.393 71.0384L326.294 72.4874L325.543 69.965C321.196 71.1994 316.903 72.4874 312.556 73.7754L314.005 78.8737L329.622 74.3657L314.005 78.82L312.556 73.7217C316.849 72.4874 321.196 71.1994 325.489 69.965L326.241 72.4874V72.541H326.294L331.5 71.0384H331.554V70.9847L330.051 65.779L326.724 63.847L308.423 69.0527L306.599 72.4337L307.082 74.151L297.153 77.049L287.332 79.8934H287.225L287.279 79.947L293.128 90.09L271.125 96.7984L271.018 96.852L271.071 96.9594L271.554 98.5157L271.608 98.623L271.715 98.5694L295.543 91.1634L295.651 91.1097L295.597 91.0024L289.533 80.8057L307.189 75.3854L309.604 83.7574V83.811H309.658L312.77 84.938L328.387 80.43L329.836 85.5284L316.903 89.2314L316.151 86.709V86.6554H316.098L310.892 88.158H310.838V88.2117L312.341 93.4174L315.668 95.242L333.915 89.9827L335.901 86.7627Z" fill="#C2000B"/>
</g>
<g clip-path="url(#clip2_9_1097)">
<path d="M37 585C72.3462 585 101 556.346 101 521C101 485.654 72.3462 457 37 457C1.65378 457 -27 485.654 -27 521C-27 556.346 1.65378 585 37 585Z" fill="url(#paint13_linear_9_1097)"/>
<path d="M37 581.971C70.6731 581.971 97.9706 554.673 97.9706 521C97.9706 487.327 70.6731 460.029 37 460.029C3.32679 460.029 -23.9707 487.327 -23.9707 521C-23.9707 554.673 3.32679 581.971 37 581.971Z" fill="url(#paint14_linear_9_1097)"/>
<path d="M31.7947 468.648L-15.5227 524.072C-20.6427 530.088 -21.9227 538.493 -18.7227 545.747C-11.2987 562.387 3.33599 575.101 21.2133 579.88C28.8933 581.928 37.0427 579.368 42.1627 573.352L89.48 517.928C94.6 511.912 95.88 503.507 92.68 496.253C85.256 479.613 70.6213 466.899 52.744 462.12C45.1067 460.072 36.9573 462.632 31.7947 468.648Z" fill="url(#paint15_linear_9_1097)"/>
<path d="M87.7733 509.395C88.328 511.656 88.7973 513.917 89.0106 516.221C89.1813 517.373 89.224 518.525 89.3093 519.677C89.352 520.275 89.352 520.829 89.352 521.427V522.28C89.352 522.579 89.352 522.877 89.3093 523.133L89.224 524.883L89.0533 526.632L88.968 527.485L88.84 528.339L88.584 530.088C88.3706 531.24 88.2 532.392 87.9013 533.501C87.7733 534.056 87.6453 534.653 87.4746 535.208L87.0053 536.872C84.2746 545.789 78.984 553.939 72.0293 560.168C65.032 566.355 56.328 570.664 47.112 572.285C42.504 573.096 37.8106 573.309 33.2026 572.925C28.5946 572.456 24.0293 571.432 19.72 569.725C24.1146 571.133 28.68 572.072 33.2453 572.285C37.8106 572.584 42.4613 572.243 46.9413 571.304L48.6053 570.92L50.2693 570.493C51.3786 570.237 52.4453 569.853 53.5546 569.512C55.688 568.744 57.8213 567.891 59.8693 566.867C60.8933 566.397 61.8746 565.8 62.8986 565.245C63.4106 564.947 63.88 564.648 64.3493 564.349L65.0746 563.88L65.8 563.411L67.208 562.429L68.5733 561.405C68.7866 561.235 69.0426 561.064 69.256 560.893L69.896 560.339C70.3226 559.955 70.792 559.613 71.2186 559.229C78.0453 553.171 83.208 545.277 86.1093 536.573L86.6213 534.952C86.792 534.397 86.92 533.843 87.0906 533.288C87.432 532.179 87.6026 531.069 87.8586 529.917L88.1573 528.211L88.2853 527.357L88.3706 526.504L88.584 524.797L88.712 523.091C89.0533 518.568 88.6266 513.96 87.7733 509.395Z" fill="url(#paint16_linear_9_1097)"/>
<path d="M-13.2612 532.605C-13.8159 530.387 -14.2426 528.125 -14.5412 525.821C-14.7972 523.517 -14.8826 521.213 -14.8826 518.909C-14.7546 514.301 -13.9866 509.651 -12.6639 505.213C-12.4932 504.659 -12.3226 504.104 -12.1519 503.549L-11.5546 501.928C-11.1279 500.861 -10.7012 499.752 -10.1892 498.728C-9.2079 496.637 -8.09857 494.547 -6.86123 492.627C-5.6239 490.664 -4.2159 488.787 -2.72257 486.995C-1.22923 485.245 0.434766 483.539 2.14143 482.003C9.0961 475.773 17.7148 471.464 26.8454 469.8C31.4108 468.947 36.0614 468.691 40.7121 469.075C45.3201 469.501 49.8854 470.483 54.1948 472.147C49.8001 470.781 45.2774 469.928 40.6694 469.715C36.1041 469.459 31.4961 469.843 27.0588 470.781C22.6214 471.763 18.2694 473.213 14.2161 475.304C10.1628 477.352 6.36543 479.955 2.99477 482.984C-3.78923 489.043 -8.86657 496.936 -11.7679 505.555C-12.4932 507.731 -13.0906 509.907 -13.4746 512.168C-13.9012 514.429 -14.1572 516.691 -14.2852 518.952C-14.4132 521.256 -14.4132 523.517 -14.2426 525.821C-13.9866 528.04 -13.6879 530.344 -13.2612 532.605Z" fill="url(#paint17_linear_9_1097)"/>
<path d="M53.8108 504.872C53.8108 504.531 53.7681 504.232 53.7255 503.891C53.6828 503.677 53.6401 503.464 53.5975 503.251C53.5548 503.165 53.5548 503.037 53.5121 502.952C53.4695 502.739 53.3841 502.568 53.2988 502.355C53.1281 501.928 52.8721 501.501 52.6161 501.16C51.4641 499.539 49.5441 498.472 47.4108 498.472H26.5895C24.4135 498.472 22.5361 499.539 21.3841 501.16C21.1281 501.544 20.8721 501.928 20.7015 502.355C20.6161 502.525 20.5308 502.739 20.4881 502.952C20.4455 503.037 20.4455 503.165 20.4028 503.251C20.3601 503.464 20.3175 503.677 20.2748 503.891C20.2321 504.189 20.1895 504.531 20.1895 504.872V512.552L26.2481 527.997L20.1895 543.443V551.123C20.1895 551.464 20.2321 551.763 20.2748 552.104C20.3175 552.317 20.3601 552.531 20.4028 552.744C20.4455 552.829 20.4455 552.957 20.4881 553.043C20.5308 553.256 20.6161 553.427 20.7015 553.64C20.8721 554.067 21.1281 554.493 21.3841 554.835C22.5361 556.456 24.4561 557.523 26.5895 557.523H47.4108C49.5868 557.523 51.4641 556.456 52.6161 554.835C52.8721 554.451 53.1281 554.067 53.2988 553.64C53.3841 553.469 53.4695 553.256 53.5121 553.043C53.5548 552.957 53.5548 552.829 53.5975 552.744L53.7255 552.104C53.7681 551.805 53.8108 551.464 53.8108 551.123V543.443L47.7521 527.997L53.8108 512.552V504.872Z" fill="url(#paint18_linear_9_1097)"/>
<path d="M53.8106 504.872C53.8106 502.824 52.7866 500.861 51.1226 499.667C50.312 499.069 49.3306 498.685 48.3493 498.557C47.3253 498.429 46.344 498.515 45.32 498.472H33.16H27.1013C25.096 498.344 23.0053 499.197 21.7253 500.776C21.0853 501.544 20.616 502.483 20.4026 503.464C20.1893 504.445 20.232 505.469 20.232 506.493V512.552L26.2906 527.997V528.04L20.2746 543.485V543.443V550.483C20.2746 551.08 20.3173 551.635 20.36 552.232C20.4453 552.787 20.6586 553.341 20.872 553.896C21.384 554.92 22.152 555.859 23.1333 556.456C24.1146 557.096 25.2666 557.437 26.4186 557.48H29.9173H36.9573H43.9973H47.496C48.648 557.437 49.8 557.096 50.7813 556.456C51.7626 555.816 52.5733 554.92 53.0853 553.853C53.3413 553.341 53.512 552.787 53.5973 552.189C53.6826 551.592 53.7253 551.037 53.6826 550.44V543.4L47.6666 527.955L53.7253 512.509L53.8106 504.872ZM53.8106 504.872V512.552L47.7946 527.997L53.8533 543.443V550.483C53.8533 551.08 53.8106 551.677 53.768 552.232C53.6826 552.829 53.4693 553.384 53.256 553.896C52.744 554.963 51.9333 555.901 50.952 556.541C49.9706 557.181 48.776 557.565 47.624 557.565H44.1253H37.0853H30.0453H26.504C25.3093 557.523 24.1573 557.181 23.1333 556.541C22.152 555.901 21.2986 554.963 20.7866 553.896C20.5306 553.341 20.36 552.787 20.232 552.189C20.1466 551.592 20.104 550.995 20.1466 550.44V543.4C20.1466 543.4 20.1466 543.4 20.1466 543.357L26.2053 527.912V527.955L20.1893 512.509V506.451C20.1893 505.427 20.1466 504.403 20.36 503.421C20.5733 502.44 21.0426 501.501 21.6826 500.691C22.9626 499.112 25.0533 498.259 27.1013 498.387H33.16H45.32C46.344 498.429 47.368 498.344 48.3493 498.472C49.3733 498.6 50.312 499.027 51.1226 499.624C52.7866 500.861 53.8106 502.867 53.8106 504.872Z" fill="#110B79"/>
<path d="M44.7226 527.571L36.6159 524.456V509.309L28.5093 528.467L36.6159 531.624V546.728L44.7226 527.571Z" fill="white"/>
<path d="M40.3705 537.171L38.2372 541.864L37.1279 544.381C37.1705 542.632 37.1705 540.925 37.1705 539.176L37.2132 531.624V531.197L36.8292 531.027L29.3625 528.125L33.1172 519.123L36.1039 511.827L36.1892 516.861L36.2745 520.659L36.3599 524.456V524.627L36.5305 524.669L44.7225 527.571L36.8719 524.285L36.9572 520.659L37.0425 516.861L37.1705 509.309L37.2132 506.707L36.1892 509.096L32.0505 518.653L27.9972 528.211L27.7412 528.808L28.3812 529.064L36.1039 532.008L36.1465 539.133C36.1465 541.651 36.1892 544.168 36.2319 546.685L36.2745 549.117L37.1705 546.899L39.1332 541.992L41.0532 537.128L44.8079 527.528L40.3705 537.171Z" fill="url(#paint19_linear_9_1097)"/>
<path d="M43.2721 492.371H40.4987V486.995H41.0961C41.4801 486.995 41.7787 486.611 41.7361 486.227C41.3521 484.179 39.2187 484.392 36.6587 484.392C34.0987 484.392 31.9654 484.179 31.5814 486.227C31.4961 486.611 31.7947 486.995 32.2214 486.995H32.9894V492.371H30.0454C29.2347 492.371 28.5947 493.011 28.5947 493.821V495.485C28.5947 496.296 29.2347 496.936 30.0454 496.936H43.3147C44.1254 496.936 44.7654 496.296 44.7654 495.485V493.821C44.7227 493.011 44.0401 492.371 43.2721 492.371Z" fill="url(#paint20_linear_9_1097)"/>
<path d="M43.2721 492.371H40.4988V486.995H40.9681C41.1388 486.995 41.3094 486.995 41.4374 486.909C41.7361 486.739 41.7788 486.355 41.6508 486.056C41.5228 485.416 41.0108 484.904 40.3708 484.733C39.1334 484.349 37.8108 484.52 36.5308 484.477C35.8908 484.477 35.2508 484.477 34.6108 484.477C33.9708 484.52 33.3308 484.563 32.7334 484.819C32.4348 484.947 32.1788 485.117 31.9654 485.373C31.7948 485.629 31.6668 485.928 31.5814 486.227C31.4961 486.525 31.6668 486.867 31.9654 486.952C32.2641 486.995 32.6054 486.952 32.9041 486.995H32.9468V487.037V492.413H32.9041H31.1121H30.2161C29.9174 492.413 29.6188 492.413 29.3628 492.541C28.8081 492.797 28.5094 493.395 28.5521 493.992C28.5521 494.589 28.5094 495.187 28.5948 495.784C28.6801 496.381 29.1921 496.851 29.7894 496.936C30.3868 496.979 30.9841 496.936 31.5814 496.936H35.1654H42.3334C42.9308 496.893 43.5708 497.064 44.0828 496.68C44.3388 496.509 44.5094 496.253 44.6374 495.997C44.7654 495.699 44.7228 495.4 44.7228 495.101V494.205C44.7228 493.907 44.7654 493.608 44.6374 493.309C44.4241 492.797 43.8694 492.371 43.2721 492.371ZM43.2721 492.371C43.8694 492.371 44.4668 492.755 44.6374 493.352C44.7654 493.651 44.7228 493.949 44.7228 494.248V495.144C44.7228 495.443 44.7654 495.741 44.6374 496.04C44.5521 496.339 44.3388 496.552 44.0828 496.723C43.5708 497.107 42.9308 496.936 42.3334 496.979H35.1654H31.5814C30.9841 496.979 30.3868 496.979 29.7894 496.979C29.1921 496.893 28.6374 496.381 28.5521 495.784C28.5094 495.187 28.5521 494.589 28.5094 493.992C28.4668 493.395 28.8081 492.755 29.3628 492.499C29.6188 492.371 29.9601 492.328 30.2588 492.371H31.1548H32.9468L32.9041 492.413V487.037L32.9468 487.08C32.6054 487.08 32.3068 487.123 31.9654 487.037C31.6241 486.952 31.4108 486.568 31.5388 486.227C31.6241 485.928 31.7521 485.587 31.9228 485.331C32.1361 485.075 32.3921 484.904 32.6908 484.733C33.2881 484.477 33.9708 484.435 34.6108 484.392H36.5308C37.8108 484.435 39.1334 484.264 40.3708 484.648C40.9681 484.861 41.5228 485.373 41.6508 486.013C41.7788 486.312 41.7361 486.696 41.4374 486.909C41.3094 486.995 41.1388 487.037 40.9681 487.037H40.4988V492.413L43.2721 492.371Z" fill="#333333"/>
<path d="M3.208 512.253C1.416 512.253 -0.034668 513.704 -0.034668 515.496V569.427C2.01333 571.005 4.18933 572.456 6.408 573.736V515.453C6.45067 513.704 5 512.253 3.208 512.253Z" fill="url(#paint21_linear_9_1097)"/>
<path d="M16.52 501.544C16.52 499.752 15.0693 498.301 13.2773 498.301C11.4853 498.301 10.0347 499.752 10.0347 501.544V575.656C12.0827 576.68 14.216 577.576 16.392 578.344C16.4773 578.088 16.4773 577.832 16.4773 577.533V501.544H16.52Z" fill="url(#paint22_linear_9_1097)"/>
<path d="M57.48 540.456C57.48 542.248 58.9306 543.699 60.7226 543.699C62.5146 543.699 63.9653 542.248 63.9653 540.456V466.344C61.9173 465.32 59.784 464.424 57.608 463.656C57.5226 463.912 57.5226 464.168 57.5226 464.467V540.456H57.48Z" fill="url(#paint23_linear_9_1097)"/>
<path d="M70.792 529.747C72.584 529.747 74.0347 528.296 74.0347 526.504V472.573C71.9867 470.995 69.8106 469.544 67.592 468.264V526.547C67.5493 528.296 69 529.747 70.792 529.747Z" fill="url(#paint24_linear_9_1097)"/>
<path d="M80.904 515.837C82.696 515.837 84.1467 514.387 84.1467 512.595V482.344C82.184 479.912 80.008 477.693 77.704 475.603V512.595C77.6614 514.387 79.112 515.837 80.904 515.837Z" fill="url(#paint25_linear_9_1097)"/>
</g>
<path opacity="0.8" d="M223.257 714.307C216.836 706.844 213.3 691.289 211.075 680.8C206.945 661.33 209.876 634.559 221.846 617.933C231.158 604.998 242.825 599.63 256.072 602.309C269.677 605.06 284.801 608.278 297.987 606.43C332.032 601.658 330.97 572.786 336.842 543.749C340.679 524.775 345.071 508.564 362.642 502.58C388.834 493.659 408.766 518.387 430.846 528.033C441.965 532.89 448.788 536.178 461.101 533.114" stroke="white" stroke-width="3" stroke-linecap="round"/>
<path opacity="0.8" d="M1.58615 10.3924C11.4088 11.0623 24.9644 19.4701 33.9939 25.2532C50.754 35.9875 67.7523 56.8762 71.1808 77.0739C73.848 92.7874 69.4752 104.863 58.265 112.411C46.751 120.164 33.8384 128.67 25.8929 139.354C5.37833 166.941 26.6765 186.462 43.2227 211.036C54.0348 227.093 62.49 241.605 54.4089 258.316C42.3632 283.226 10.762 280.047 -11.6123 288.991C-22.8783 293.494 -30.0108 296.042 -36.4783 306.959" stroke="white" stroke-width="3" stroke-linecap="round"/>
</g>
<defs>
<linearGradient id="paint0_linear_9_1097" x1="251" y1="59.5" x2="412" y2="59.5" gradientUnits="userSpaceOnUse">
<stop stop-color="#E5E5E5"/>
<stop offset="0.4543" stop-color="#B0B0B0"/>
<stop offset="1" stop-color="#838383"/>
</linearGradient>
<linearGradient id="paint1_linear_9_1097" x1="233.018" y1="85.1418" x2="378.252" y2="49.2815" gradientUnits="userSpaceOnUse">
<stop stop-color="#666666"/>
<stop offset="0.0288662" stop-color="#6F6F6F"/>
<stop offset="0.1763" stop-color="#979797"/>
<stop offset="0.3283" stop-color="#B8B8B8"/>
<stop offset="0.4837" stop-color="#D1D1D1"/>
<stop offset="0.6438" stop-color="#E4E4E4"/>
<stop offset="0.8117" stop-color="#EEEEEE"/>
<stop offset="1" stop-color="#F2F2F2"/>
</linearGradient>
<linearGradient id="paint2_linear_9_1097" x1="303.737" y1="105.376" x2="406.689" y2="105.376" gradientUnits="userSpaceOnUse">
<stop stop-color="#FFE610"/>
<stop offset="0.1564" stop-color="#FFBD0C"/>
<stop offset="0.3496" stop-color="#FF9008"/>
<stop offset="0.5359" stop-color="#FF6D04"/>
<stop offset="0.7111" stop-color="#FF5402"/>
<stop offset="0.8705" stop-color="#FF4501"/>
<stop offset="1" stop-color="#FF4000"/>
</linearGradient>
<linearGradient id="paint3_linear_9_1097" x1="258.742" y1="9.05836" x2="347.782" y2="9.05836" gradientUnits="userSpaceOnUse">
<stop stop-color="#80C41C"/>
<stop offset="0.1681" stop-color="#5EBA49"/>
<stop offset="0.3586" stop-color="#3DB176"/>
<stop offset="0.5424" stop-color="#23AA99"/>
<stop offset="0.7151" stop-color="#10A4B2"/>
<stop offset="0.8723" stop-color="#05A1C1"/>
<stop offset="1" stop-color="#01A0C6"/>
</linearGradient>
<linearGradient id="paint4_linear_9_1097" x1="255.57" y1="18.4998" x2="365.36" y2="18.4998" gradientUnits="userSpaceOnUse">
<stop stop-color="#80C41C"/>
<stop offset="0.1681" stop-color="#5EBA49"/>
<stop offset="0.3586" stop-color="#3DB176"/>
<stop offset="0.5424" stop-color="#23AA99"/>
<stop offset="0.7151" stop-color="#10A4B2"/>
<stop offset="0.8723" stop-color="#05A1C1"/>
<stop offset="1" stop-color="#01A0C6"/>
</linearGradient>
<linearGradient id="paint5_linear_9_1097" x1="256.521" y1="14.0817" x2="359.276" y2="14.0817" gradientUnits="userSpaceOnUse">
<stop stop-color="#80C41C"/>
<stop offset="0.1681" stop-color="#5EBA49"/>
<stop offset="0.3586" stop-color="#3DB176"/>
<stop offset="0.5424" stop-color="#23AA99"/>
<stop offset="0.7151" stop-color="#10A4B2"/>
<stop offset="0.8723" stop-color="#05A1C1"/>
<stop offset="1" stop-color="#01A0C6"/>
</linearGradient>
<linearGradient id="paint6_linear_9_1097" x1="330.009" y1="7.68099" x2="199.105" y2="51.3156" gradientUnits="userSpaceOnUse">
<stop stop-color="#E5E5E5"/>
<stop offset="0.1882" stop-color="#B0B0B0"/>
<stop offset="0.3757" stop-color="#838383"/>
<stop offset="0.5546" stop-color="#606060"/>
<stop offset="0.7227" stop-color="#474747"/>
<stop offset="0.8757" stop-color="#383838"/>
<stop offset="1" stop-color="#333333"/>
</linearGradient>
<linearGradient id="paint7_linear_9_1097" x1="327.857" y1="1.22472" x2="196.952" y2="44.8594" gradientUnits="userSpaceOnUse">
<stop stop-color="#E5E5E5"/>
<stop offset="0.1882" stop-color="#B0B0B0"/>
<stop offset="0.3757" stop-color="#838383"/>
<stop offset="0.5546" stop-color="#606060"/>
<stop offset="0.7227" stop-color="#474747"/>
<stop offset="0.8757" stop-color="#383838"/>
<stop offset="1" stop-color="#333333"/>
</linearGradient>
<linearGradient id="paint8_linear_9_1097" x1="332.003" y1="13.664" x2="201.099" y2="57.2987" gradientUnits="userSpaceOnUse">
<stop stop-color="#E5E5E5"/>
<stop offset="0.1882" stop-color="#B0B0B0"/>
<stop offset="0.3757" stop-color="#838383"/>
<stop offset="0.5546" stop-color="#606060"/>
<stop offset="0.7227" stop-color="#474747"/>
<stop offset="0.8757" stop-color="#383838"/>
<stop offset="1" stop-color="#333333"/>
</linearGradient>
<linearGradient id="paint9_linear_9_1097" x1="360.746" y1="99.8929" x2="229.842" y2="143.528" gradientUnits="userSpaceOnUse">
<stop stop-color="#E5E5E5"/>
<stop offset="0.1882" stop-color="#B0B0B0"/>
<stop offset="0.3757" stop-color="#838383"/>
<stop offset="0.5546" stop-color="#606060"/>
<stop offset="0.7227" stop-color="#474747"/>
<stop offset="0.8757" stop-color="#383838"/>
<stop offset="1" stop-color="#333333"/>
</linearGradient>
<linearGradient id="paint10_linear_9_1097" x1="333.307" y1="38.829" x2="401.093" y2="40.1319" gradientUnits="userSpaceOnUse">
<stop stop-color="#FF4000"/>
<stop offset="0.0116976" stop-color="#FF3F02"/>
<stop offset="0.2382" stop-color="#F92A2F"/>
<stop offset="0.4564" stop-color="#F51952"/>
<stop offset="0.6615" stop-color="#F20E6B"/>
<stop offset="0.8483" stop-color="#F1067A"/>
<stop offset="1" stop-color="#F0047F"/>
</linearGradient>
<linearGradient id="paint11_linear_9_1097" x1="305.158" y1="68.1028" x2="406.562" y2="41.1042" gradientUnits="userSpaceOnUse">
<stop stop-color="#FFE610"/>
<stop offset="0.1564" stop-color="#FFBD0C"/>
<stop offset="0.3496" stop-color="#FF9008"/>
<stop offset="0.5359" stop-color="#FF6D04"/>
<stop offset="0.7111" stop-color="#FF5402"/>
<stop offset="0.8705" stop-color="#FF4501"/>
<stop offset="1" stop-color="#FF4000"/>
</linearGradient>
<linearGradient id="paint12_linear_9_1097" x1="240.707" y1="99.5568" x2="631.298" y2="2.77318" gradientUnits="userSpaceOnUse">
<stop stop-color="#FFE610"/>
<stop offset="0.1564" stop-color="#FFBD0C"/>
<stop offset="0.3496" stop-color="#FF9008"/>
<stop offset="0.5359" stop-color="#FF6D04"/>
<stop offset="0.7111" stop-color="#FF5402"/>
<stop offset="0.8705" stop-color="#FF4501"/>
<stop offset="1" stop-color="#FF4000"/>
</linearGradient>
<linearGradient id="paint13_linear_9_1097" x1="186.51" y1="521" x2="-82.4091" y2="521" gradientUnits="userSpaceOnUse">
<stop stop-color="#E5E5E5"/>
<stop offset="0.4543" stop-color="#B0B0B0"/>
<stop offset="1" stop-color="#838383"/>
</linearGradient>
<linearGradient id="paint14_linear_9_1097" x1="-3.00349" y1="584.183" x2="53.9095" y2="494.292" gradientUnits="userSpaceOnUse">
<stop stop-color="#666666"/>
<stop offset="0.3238" stop-color="#9E9E9E"/>
<stop offset="0.6295" stop-color="#CBCBCB"/>
<stop offset="0.8643" stop-color="#E8E8E8"/>
<stop offset="1" stop-color="#F2F2F2"/>
</linearGradient>
<linearGradient id="paint15_linear_9_1097" x1="-1.51819" y1="568.219" x2="76.3285" y2="472.794" gradientUnits="userSpaceOnUse">
<stop stop-color="#2E58A6"/>
<stop offset="1" stop-color="#41AA54"/>
</linearGradient>
<linearGradient id="paint16_linear_9_1097" x1="19.7528" y1="541.306" x2="89.3675" y2="541.306" gradientUnits="userSpaceOnUse">
<stop stop-color="#80C41C"/>
<stop offset="0.1681" stop-color="#5EBA49"/>
<stop offset="0.3586" stop-color="#3DB176"/>
<stop offset="0.5424" stop-color="#23AA99"/>
<stop offset="0.7151" stop-color="#10A4B2"/>
<stop offset="0.8723" stop-color="#05A1C1"/>
<stop offset="1" stop-color="#01A0C6"/>
</linearGradient>
<linearGradient id="paint17_linear_9_1097" x1="-14.8567" y1="500.696" x2="54.2487" y2="500.696" gradientUnits="userSpaceOnUse">
<stop stop-color="#80C41C"/>
<stop offset="0.1681" stop-color="#5EBA49"/>
<stop offset="0.3586" stop-color="#3DB176"/>
<stop offset="0.5424" stop-color="#23AA99"/>
<stop offset="0.7151" stop-color="#10A4B2"/>
<stop offset="0.8723" stop-color="#05A1C1"/>
<stop offset="1" stop-color="#01A0C6"/>
</linearGradient>
<linearGradient id="paint18_linear_9_1097" x1="37.0001" y1="494.183" x2="37.0001" y2="549.265" gradientUnits="userSpaceOnUse">
<stop stop-color="#80C41C"/>
<stop offset="0.1681" stop-color="#5EBA49"/>
<stop offset="0.3586" stop-color="#3DB176"/>
<stop offset="0.5424" stop-color="#23AA99"/>
<stop offset="0.7151" stop-color="#10A4B2"/>
<stop offset="0.8723" stop-color="#05A1C1"/>
<stop offset="1" stop-color="#01A0C6"/>
</linearGradient>
<linearGradient id="paint19_linear_9_1097" x1="36.1914" y1="506.114" x2="36.1914" y2="549.937" gradientUnits="userSpaceOnUse">
<stop stop-color="#E5E5E5"/>
<stop offset="0.1882" stop-color="#B0B0B0"/>
<stop offset="0.3757" stop-color="#838383"/>
<stop offset="0.5546" stop-color="#606060"/>
<stop offset="0.7227" stop-color="#474747"/>
<stop offset="0.8757" stop-color="#383838"/>
<stop offset="1" stop-color="#333333"/>
</linearGradient>
<linearGradient id="paint20_linear_9_1097" x1="36.619" y1="489.57" x2="36.619" y2="559.419" gradientUnits="userSpaceOnUse">
<stop stop-color="#E5E5E5"/>
<stop offset="0.1882" stop-color="#B0B0B0"/>
<stop offset="0.3757" stop-color="#838383"/>
<stop offset="0.5546" stop-color="#606060"/>
<stop offset="0.7227" stop-color="#474747"/>
<stop offset="0.8757" stop-color="#383838"/>
<stop offset="1" stop-color="#333333"/>
</linearGradient>
<linearGradient id="paint21_linear_9_1097" x1="3.20638" y1="494.183" x2="3.20638" y2="549.265" gradientUnits="userSpaceOnUse">
<stop stop-color="#80C41C"/>
<stop offset="0.1681" stop-color="#5EBA49"/>
<stop offset="0.3586" stop-color="#3DB176"/>
<stop offset="0.5424" stop-color="#23AA99"/>
<stop offset="0.7151" stop-color="#10A4B2"/>
<stop offset="0.8723" stop-color="#05A1C1"/>
<stop offset="1" stop-color="#01A0C6"/>
</linearGradient>
<linearGradient id="paint22_linear_9_1097" x1="13.313" y1="494.183" x2="13.313" y2="549.265" gradientUnits="userSpaceOnUse">
<stop stop-color="#80C41C"/>
<stop offset="0.1681" stop-color="#5EBA49"/>
<stop offset="0.3586" stop-color="#3DB176"/>
<stop offset="0.5424" stop-color="#23AA99"/>
<stop offset="0.7151" stop-color="#10A4B2"/>
<stop offset="0.8723" stop-color="#05A1C1"/>
<stop offset="1" stop-color="#01A0C6"/>
</linearGradient>
<linearGradient id="paint23_linear_9_1097" x1="60.687" y1="494.183" x2="60.687" y2="549.265" gradientUnits="userSpaceOnUse">
<stop stop-color="#80C41C"/>
<stop offset="0.1681" stop-color="#5EBA49"/>
<stop offset="0.3586" stop-color="#3DB176"/>
<stop offset="0.5424" stop-color="#23AA99"/>
<stop offset="0.7151" stop-color="#10A4B2"/>
<stop offset="0.8723" stop-color="#05A1C1"/>
<stop offset="1" stop-color="#01A0C6"/>
</linearGradient>
<linearGradient id="paint24_linear_9_1097" x1="70.7936" y1="494.183" x2="70.7936" y2="549.265" gradientUnits="userSpaceOnUse">
<stop stop-color="#80C41C"/>
<stop offset="0.1681" stop-color="#5EBA49"/>
<stop offset="0.3586" stop-color="#3DB176"/>
<stop offset="0.5424" stop-color="#23AA99"/>
<stop offset="0.7151" stop-color="#10A4B2"/>
<stop offset="0.8723" stop-color="#05A1C1"/>
<stop offset="1" stop-color="#01A0C6"/>
</linearGradient>
<linearGradient id="paint25_linear_9_1097" x1="80.9002" y1="494.183" x2="80.9002" y2="549.265" gradientUnits="userSpaceOnUse">
<stop stop-color="#80C41C"/>
<stop offset="0.1681" stop-color="#5EBA49"/>
<stop offset="0.3586" stop-color="#3DB176"/>
<stop offset="0.5424" stop-color="#23AA99"/>
<stop offset="0.7151" stop-color="#10A4B2"/>
<stop offset="0.8723" stop-color="#05A1C1"/>
<stop offset="1" stop-color="#01A0C6"/>
</linearGradient>
<clipPath id="clip0_9_1097">
<rect width="390" height="661" fill="white"/>
</clipPath>
<clipPath id="clip1_9_1097">
<rect width="161" height="161" fill="white" transform="translate(251 -21)"/>
</clipPath>
<clipPath id="clip2_9_1097">
<rect width="128" height="128" fill="white" transform="translate(-27 457)"/>
</clipPath>
</defs>
</svg>
