<svg width="390" height="661" viewBox="0 0 390 661" fill="none" xmlns="http://www.w3.org/2000/svg">
<g clip-path="url(#clip0_9_1186)">
<rect width="390" height="661" fill="#FF4000"/>
<path d="M307.53 270.495C307.307 270.332 306.994 270.381 306.831 270.605C306.669 270.828 306.718 271.141 306.941 271.303L307.53 270.495ZM315.306 290.656L314.806 290.646L315.306 290.656ZM307.849 308.119L308.206 308.469L307.849 308.119ZM289.305 300.38L289.753 300.602L289.305 300.38ZM294.194 321.067L294.595 321.365L294.194 321.067ZM224.507 353.989C224.554 354.262 224.812 354.444 225.085 354.398L229.52 353.636C229.792 353.589 229.975 353.331 229.928 353.059C229.881 352.787 229.623 352.604 229.35 352.651L225.408 353.327L224.731 349.385C224.684 349.113 224.426 348.93 224.154 348.977C223.882 349.024 223.699 349.282 223.746 349.554L224.507 353.989ZM306.941 271.303C310.476 273.876 312.47 276.721 313.571 279.895C314.677 283.084 314.89 286.636 314.806 290.646L315.806 290.666C315.891 286.625 315.681 282.928 314.516 279.567C313.344 276.19 311.219 273.181 307.53 270.495L306.941 271.303ZM314.806 290.646C314.662 297.565 312.074 303.086 307.492 307.769L308.206 308.469C312.951 303.619 315.656 297.861 315.806 290.666L314.806 290.646ZM307.492 307.769C306.168 309.122 304.072 310.022 301.703 310.418C299.341 310.812 296.766 310.696 294.539 310.073C292.303 309.447 290.484 308.331 289.536 306.784C288.607 305.268 288.452 303.234 289.753 300.602L288.857 300.159C287.441 303.023 287.534 305.432 288.683 307.307C289.813 309.15 291.902 310.373 294.269 311.036C296.646 311.701 299.37 311.821 301.868 311.404C304.358 310.988 306.683 310.026 308.206 308.469L307.492 307.769ZM289.753 300.602C289.959 300.187 290.523 299.545 291.398 298.836C292.258 298.139 293.371 297.415 294.613 296.822C297.119 295.625 300.041 295.011 302.475 296.05L302.868 295.131C300.043 293.924 296.79 294.675 294.182 295.92C292.868 296.547 291.689 297.313 290.769 298.059C289.864 298.792 289.161 299.544 288.857 300.159L289.753 300.602ZM302.475 296.05C303.312 296.408 303.853 296.945 304.177 297.618C304.508 298.302 304.631 299.162 304.563 300.179C304.425 302.221 303.52 304.757 302.234 307.406C299.67 312.69 295.69 318.222 293.793 320.768L294.595 321.365C296.496 318.814 300.525 313.218 303.134 307.843C304.435 305.163 305.409 302.486 305.56 300.246C305.636 299.122 305.507 298.073 305.078 297.183C304.643 296.281 303.916 295.578 302.868 295.131L302.475 296.05ZM293.793 320.768C290.933 324.606 286.537 326.789 281.138 328.334C275.725 329.883 269.422 330.763 262.753 332.072C249.465 334.678 234.958 338.952 224.592 353.616L225.408 354.193C235.542 339.858 249.718 335.648 262.946 333.053C269.534 331.76 275.947 330.86 281.413 329.296C286.894 327.727 291.541 325.463 294.595 321.365L293.793 320.768Z" fill="white"/>
<path opacity="0.8" d="M-8.85986 747.206C-4.12666 741.62 -4.56983 731.191 -4.15633 724.09C-1.20024 673.327 30.7562 631.807 73.4476 642.82C126.56 656.522 176.097 645.84 205.92 591.16C240.305 528.116 267.947 508.938 333.008 524.224C357.942 530.082 382.977 528.498 401.518 508.338C408.213 501.058 413.223 482.49 419.945 475.323" stroke="white" stroke-width="3" stroke-linecap="round"/>
<path opacity="0.8" d="M29.947 806.883C34.6802 801.297 34.2371 790.868 34.6506 783.767C37.6066 733.004 69.5631 691.484 112.254 702.497C165.367 716.199 214.904 705.517 244.727 650.837C279.111 587.793 306.754 568.615 371.814 583.901C396.749 589.759 421.784 588.175 440.324 568.016C447.02 560.735 452.03 542.167 458.752 535" stroke="white" stroke-width="3" stroke-linecap="round"/>
<path fill-rule="evenodd" clip-rule="evenodd" d="M145.542 555.235C131.498 542.901 114.439 532.586 112.2 511.182C104.533 522.584 102.632 533.246 106.844 544.601C109.106 550.699 111.611 556.776 110.689 563.497C110.388 565.632 110.42 568.203 107.449 568.666C104.478 569.128 103.708 566.579 102.774 564.664C100.096 559.493 100.402 553.619 98.7206 546.504C90.0028 563.17 85.47 578.857 87.4599 595.566C88.9819 608.137 95.8367 617.23 109.156 621.001C121.421 624.472 133.482 622.941 144.865 617.179C160.164 609.492 166.237 597.663 163.422 582.041C161.396 570.759 154.04 562.701 145.542 555.235Z" fill="white"/>
</g>
<defs>
<clipPath id="clip0_9_1186">
<rect width="390" height="661" fill="white"/>
</clipPath>
</defs>
</svg>
