<svg width="390" height="661" viewBox="0 0 390 661" fill="none" xmlns="http://www.w3.org/2000/svg">
<g clip-path="url(#clip0_9_1147)">
<rect width="390" height="661" fill="#38C678"/>
<g opacity="0.8">
<path fill-rule="evenodd" clip-rule="evenodd" d="M26.5625 91.8852C26.9663 90.7959 27.0244 89.6078 26.7287 88.4854L26.7064 88.4007C26.4787 87.5366 26.0585 86.7053 25.3975 86.0501C25.0333 85.689 24.5827 85.2749 24.16 84.9844C23.6016 84.6006 22.8471 84.2645 22.2424 84.025C21.4177 83.6984 20.561 83.5134 19.7233 83.3842C18.1953 83.1486 16.6426 83.1182 15.1058 83.2938L14.8301 83.3253C14.1091 83.4077 13.3941 83.5306 12.6874 83.6908C12.3096 83.7764 11.8919 83.8704 11.5516 83.9454C11.376 83.9841 11.1774 84.0274 10.9754 84.0712C9.89988 84.3041 9.15336 85.2998 9.23267 86.4079L9.70754 93.0442C9.77772 94.0252 10.481 94.8407 11.4348 95.047L12.8891 95.3614L14.0107 95.6998C15.2298 96.0676 16.4911 96.2754 17.7637 96.3178L18.2798 96.335C19.1172 96.3629 19.9552 96.2897 20.7759 96.117L21.5355 95.9572C22.5558 95.7425 23.5167 95.3026 24.3492 94.6694L24.6977 94.4044C25.5443 93.7604 26.1913 92.8863 26.5625 91.8852ZM25.6033 88.7894C25.837 89.6765 25.7911 90.6157 25.4718 91.4768C25.1785 92.2681 24.667 92.959 23.9978 93.4681L23.6494 93.7331C22.9543 94.2618 22.1521 94.629 21.3003 94.8082L20.5407 94.968C19.811 95.1216 19.0659 95.1867 18.3212 95.1618L17.8051 95.1446C16.6326 95.1056 15.4704 94.9142 14.3472 94.5753L13.2035 94.2302L13.1813 94.2234L13.1587 94.2185L11.6818 93.8992C11.233 93.8021 10.902 93.4184 10.869 92.9567L10.3941 86.3205C10.3568 85.7999 10.7077 85.3291 11.2172 85.2187C11.42 85.1748 11.6202 85.1312 11.7977 85.092C12.1414 85.0163 12.5615 84.9217 12.94 84.8359C13.6071 84.6848 14.2806 84.569 14.9584 84.4916L15.234 84.4601C16.6687 84.2962 18.1181 84.3245 19.5444 84.5445C20.3396 84.6671 21.1021 84.8356 21.8142 85.1176C22.4029 85.3507 23.0564 85.6482 23.5024 85.9547C23.8376 86.1851 24.2291 86.5401 24.5799 86.8879C25.0651 87.3689 25.3957 88.0017 25.5809 88.7046L25.6033 88.7894ZM7.4933 92.6293C7.52884 93.0675 7.19925 93.4501 6.76369 93.4762L5.64786 93.543C5.17421 93.5714 4.72276 93.5792 4.2847 93.5322C4.00388 93.502 3.68616 93.4575 3.40065 93.3938C3.18736 93.3463 2.97059 93.2492 2.72736 93.1153L2.32542 92.8942C1.79889 92.6044 1.36508 92.1699 1.07427 91.6411C0.733879 91.022 0.607964 90.2927 0.716545 89.5886C0.814473 88.9536 1.0972 88.3529 1.52423 87.8793L1.66616 87.722C2.15606 87.1787 2.78532 86.7824 3.48411 86.577L3.8087 86.4816C4.06971 86.4048 4.33641 86.3491 4.60608 86.3149L6.15414 86.1184C6.59211 86.0629 6.98692 86.3859 7.02289 86.8291L7.4933 92.6293ZM6.8298 94.6479C7.91868 94.5827 8.74273 93.6263 8.6539 92.5307L8.1834 86.7305C8.09355 85.6224 7.10643 84.8149 6.01161 84.9539L4.46356 85.1503C4.13267 85.1923 3.80553 85.2606 3.4853 85.3548L3.16072 85.4502C2.25533 85.7163 1.44009 86.2298 0.805383 86.9337L0.663448 87.0911C0.0804212 87.7377 -0.301505 88.5517 -0.434057 89.4112C-0.581787 90.3691 -0.411879 91.3622 0.0555446 92.2122C0.452976 92.935 1.04594 93.5287 1.76548 93.9247L2.1674 94.1459C2.44818 94.3004 2.77643 94.4575 3.14644 94.54C3.49056 94.6167 3.85536 94.6669 4.15852 94.6994C4.68966 94.7564 5.21439 94.7447 5.71405 94.7147L6.8298 94.6479ZM17.1468 107.952C17.7973 106.923 18.1147 105.716 18.055 104.499L18.0488 104.372C18.0047 103.472 17.7757 102.559 17.2706 101.762C16.9057 101.187 16.3979 100.465 15.8633 99.9786C15.2423 99.414 14.3098 98.9184 13.6491 98.6033C13.0095 98.298 12.3441 98.0834 11.6954 97.902C10.0107 97.4308 8.2721 97.1807 6.52268 97.1581L6.06843 97.1521L4.58696 97.0139C3.61537 96.9232 2.69914 97.489 2.3366 98.4032L-0.115497 104.588C-0.524964 105.621 -0.113086 106.795 0.842259 107.341C1.02171 107.444 1.19808 107.545 1.35383 107.635C1.61748 107.787 1.84689 107.926 2.07117 108.062C2.44751 108.29 2.80964 108.51 3.29349 108.766C3.70386 108.983 4.19202 109.213 4.66171 109.424C5.9982 110.023 7.41172 110.39 8.83377 110.61C9.76515 110.753 10.7373 110.847 11.7214 110.768C12.3401 110.719 13.0881 110.626 13.6895 110.443C14.1801 110.293 14.7345 110.034 15.1906 109.799C16.0182 109.374 16.6694 108.708 17.1468 107.952ZM16.892 104.559C16.9398 105.534 16.6858 106.5 16.1652 107.323C15.7768 107.938 15.2708 108.442 14.6634 108.754C14.2241 108.98 13.7438 109.201 13.3548 109.319C12.877 109.465 12.2306 109.551 11.6325 109.598C10.7766 109.667 9.90472 109.587 9.01271 109.449C7.66681 109.242 6.35765 108.899 5.13726 108.351C4.6775 108.145 4.21518 107.927 3.8368 107.727C3.37408 107.482 3.06662 107.295 2.71795 107.083C2.49186 106.945 2.24827 106.797 1.93396 106.616C1.77648 106.525 1.5987 106.423 1.41855 106.32C0.966039 106.061 0.773244 105.507 0.965641 105.021L3.41774 98.8365C3.58833 98.4062 4.0195 98.14 4.47676 98.1826L5.9812 98.3231L6.00425 98.3252L6.02742 98.3254L6.50484 98.3317C8.15405 98.353 9.79316 98.5887 11.3815 99.033C12.0041 99.2071 12.5965 99.4008 13.1489 99.6643C13.8 99.9749 14.5972 100.41 15.0822 100.851C15.4951 101.226 15.9343 101.837 16.2891 102.396C16.6622 102.985 16.8493 103.688 16.8858 104.432L16.892 104.559ZM0.168304 97.922C0.246665 97.7287 0.152236 97.5086 -0.0410012 97.4342L-1.38473 96.917C-1.83936 96.742 -2.31134 96.6163 -2.79256 96.5421L-3.4039 96.4478C-3.79244 96.3879 -4.18859 96.3972 -4.57442 96.4751C-5.26862 96.6156 -5.90186 96.9731 -6.3838 97.4967L-6.45846 97.5779C-6.90362 98.0615 -7.19515 98.668 -7.29559 99.3193C-7.40456 100.026 -7.28297 100.748 -6.94906 101.378L-6.88538 101.498C-6.62379 101.992 -6.26131 102.413 -5.81691 102.718C-5.52502 102.919 -5.2072 103.129 -4.94584 103.284C-4.44204 103.582 -3.75815 103.904 -3.15949 104.167C-2.79419 104.328 -2.35779 104.152 -2.19566 103.752L0.168304 97.922ZM0.376779 96.3375C1.17937 96.6465 1.57158 97.5608 1.24599 98.3638L-1.11796 104.194C-1.51667 105.177 -2.63573 105.679 -3.62692 105.244C-4.23515 104.976 -4.97123 104.631 -5.53743 104.296C-5.83243 104.122 -6.17563 103.894 -6.47412 103.689C-7.08727 103.268 -7.57102 102.698 -7.91263 102.054L-7.97631 101.933C-8.42901 101.08 -8.59392 100.1 -8.44618 99.1418C-8.31 98.2588 -7.91471 97.4365 -7.31115 96.7807L-7.23648 96.6996C-6.58767 95.9946 -5.73532 95.5134 -4.80068 95.3244C-4.28137 95.2194 -3.74803 95.2069 -3.22496 95.2876L-2.61363 95.3818C-2.0507 95.4687 -1.49875 95.6156 -0.967008 95.8203L0.376779 96.3375Z" fill="white"/>
<g clip-path="url(#clip1_9_1147)">
<path fill-rule="evenodd" clip-rule="evenodd" d="M65.1877 127.545C65.8112 126.564 66.1173 125.415 66.0637 124.255L66.0597 124.168C66.0184 123.275 65.7819 122.374 65.2732 121.595C64.9929 121.165 64.6392 120.666 64.2868 120.293C63.8214 119.801 63.1543 119.314 62.6133 118.953C61.8755 118.46 61.0767 118.1 60.2847 117.798C58.8402 117.247 57.3285 116.891 55.789 116.74L55.5128 116.713C54.7906 116.642 54.0657 116.613 53.3412 116.621C52.9538 116.625 52.5257 116.63 52.1772 116.632C51.9974 116.633 51.7941 116.633 51.5874 116.634C50.487 116.636 49.5482 117.452 49.3932 118.553L48.4649 125.141C48.3276 126.115 48.8441 127.06 49.7334 127.461L51.0893 128.074L52.1149 128.64C53.2297 129.256 54.4194 129.723 55.6547 130.032L56.1557 130.157C56.9686 130.36 57.8033 130.464 58.642 130.468L59.4182 130.471C60.4608 130.475 61.4926 130.247 62.4395 129.802L62.8358 129.616C63.7987 129.164 64.6147 128.446 65.1877 127.545ZM64.8995 124.316C64.9419 125.233 64.6999 126.141 64.2071 126.916C63.7542 127.629 63.1091 128.197 62.348 128.554L61.9517 128.74C61.1612 129.111 60.2998 129.302 59.4294 129.298L58.6531 129.295C57.9074 129.292 57.1652 129.199 56.4424 129.019L55.9414 128.894C54.8032 128.609 53.707 128.178 52.68 127.611L51.6341 127.034L51.6138 127.023L51.5928 127.013L50.2158 126.391C49.7973 126.202 49.5542 125.757 49.6188 125.299L50.5471 118.711C50.6199 118.194 51.0618 117.807 51.583 117.806C51.7906 117.806 51.9955 117.805 52.1772 117.804C52.5292 117.802 52.9598 117.798 53.3479 117.794C54.0318 117.786 54.7146 117.814 55.3935 117.88L55.6697 117.908C57.1068 118.048 58.518 118.38 59.8663 118.895C60.6181 119.181 61.3283 119.506 61.9654 119.931C62.492 120.283 63.0686 120.711 63.4403 121.104C63.7197 121.4 64.028 121.829 64.298 122.242C64.6714 122.815 64.8619 123.503 64.8955 124.229L64.8995 124.316ZM46.387 124.27C46.3298 124.706 45.9272 125.011 45.4959 124.945L44.3909 124.777C43.9218 124.705 43.4788 124.618 43.0604 124.48C42.7921 124.391 42.4908 124.281 42.225 124.159C42.0265 124.068 41.8349 123.927 41.6252 123.745L41.2786 123.445C40.8246 123.051 40.4916 122.535 40.3183 121.957C40.1154 121.28 40.1453 120.541 40.3992 119.875C40.6282 119.275 41.0307 118.747 41.5476 118.374L41.7194 118.25C42.3124 117.821 43.0108 117.566 43.7371 117.512L44.0745 117.486C44.3458 117.466 44.6183 117.468 44.8891 117.491L46.4439 117.624C46.8838 117.661 47.2021 118.06 47.1442 118.501L46.387 124.27ZM45.3147 126.105C46.393 126.27 47.3994 125.507 47.5424 124.418L48.2996 118.648C48.4442 117.546 47.6486 116.549 46.549 116.455L44.9942 116.322C44.6618 116.294 44.3276 116.292 43.9948 116.317L43.6574 116.342C42.7163 116.412 41.8115 116.743 41.0432 117.298L40.8714 117.422C40.1657 117.932 39.6214 118.648 39.3115 119.46C38.966 120.366 38.9237 121.373 39.2024 122.302C39.4393 123.092 39.8944 123.797 40.5149 124.335L40.8614 124.636C41.1035 124.846 41.3915 125.068 41.736 125.226C42.0563 125.374 42.4025 125.499 42.6921 125.595C43.1994 125.762 43.7149 125.86 44.2097 125.936L45.3147 126.105ZM52.6101 141.278C53.4621 140.408 54.0257 139.295 54.2228 138.092L54.2433 137.966C54.389 137.077 54.3567 136.137 54.0301 135.252C53.7941 134.613 53.4491 133.8 53.0284 133.212C52.5397 132.53 51.732 131.85 51.1521 131.403C50.5908 130.971 49.9852 130.621 49.3891 130.308C47.8407 129.493 46.1933 128.884 44.4876 128.495L44.0447 128.394L42.6253 127.947C41.6943 127.655 40.6798 128.016 40.1335 128.834L36.4381 134.366C35.821 135.29 35.9773 136.525 36.7968 137.259C36.9507 137.397 37.1019 137.533 37.2354 137.653C37.4612 137.857 37.6563 138.042 37.8471 138.222C38.1671 138.524 38.4751 138.815 38.8944 139.167C39.2501 139.465 39.6791 139.792 40.0941 140.097C41.2751 140.963 42.5801 141.619 43.9245 142.132C44.805 142.468 45.7358 142.763 46.7145 142.893C47.3297 142.975 48.0806 143.041 48.7071 142.987C49.2182 142.944 49.8147 142.807 50.3098 142.673C51.2083 142.431 51.9848 141.916 52.6101 141.278ZM53.0729 137.907C52.9152 138.87 52.4641 139.761 51.7823 140.457C51.2736 140.976 50.6732 141.363 50.0137 141.541C49.5367 141.67 49.0209 141.784 48.6156 141.819C48.1179 141.861 47.4679 141.809 46.8731 141.73C46.0219 141.617 45.1862 141.357 44.3429 141.035C43.0705 140.55 41.8626 139.939 40.7842 139.148C40.3779 138.85 39.9717 138.539 39.6438 138.264C39.2427 137.928 38.9814 137.68 38.685 137.4C38.4928 137.218 38.2857 137.022 38.0164 136.779C37.8815 136.657 37.7291 136.52 37.5746 136.381C37.1864 136.034 37.1143 135.451 37.4042 135.017L41.0996 129.484C41.3567 129.099 41.8341 128.929 42.2723 129.067L43.7137 129.52L43.7358 129.527L43.7584 129.532L44.2239 129.638C45.8319 130.005 47.3851 130.58 48.8448 131.347C49.417 131.648 49.9556 131.962 50.4404 132.336C51.0118 132.776 51.7 133.369 52.0816 133.902C52.4066 134.355 52.7079 135.044 52.9374 135.666C53.1787 136.319 53.2139 137.047 53.0935 137.782L53.0729 137.907ZM38.1144 127.908C38.2316 127.736 38.1855 127.501 38.0122 127.387L36.8069 126.6C36.3991 126.333 35.964 126.111 35.5091 125.938L34.9311 125.717C34.5638 125.577 34.1745 125.503 33.7809 125.498C33.0727 125.49 32.3786 125.707 31.7975 126.117L31.7074 126.181C31.1707 126.561 30.7584 127.092 30.5235 127.708C30.2687 128.376 30.2359 129.108 30.4303 129.794L30.4673 129.925C30.6195 130.462 30.8855 130.95 31.256 131.342C31.4993 131.599 31.7659 131.871 31.989 132.077C32.419 132.475 33.02 132.933 33.5502 133.316C33.8737 133.55 34.3373 133.469 34.5797 133.112L38.1144 127.908ZM38.6508 126.403C39.3706 126.873 39.5623 127.849 39.0754 128.566L35.5407 133.77C34.9445 134.648 33.7451 134.904 32.8673 134.27C32.3287 133.881 31.6814 133.39 31.1981 132.943C30.9463 132.71 30.6586 132.416 30.4097 132.153C29.8986 131.612 29.5452 130.954 29.3464 130.252L29.3094 130.121C29.0459 129.191 29.0903 128.199 29.4358 127.293C29.7542 126.458 30.3133 125.737 31.041 125.223L31.131 125.159C31.9133 124.606 32.8477 124.314 33.8012 124.326C34.331 124.332 34.8551 124.432 35.3496 124.62L35.9275 124.841C36.4597 125.044 36.9685 125.303 37.4454 125.615L38.6508 126.403Z" fill="white"/>
</g>
<g clip-path="url(#clip2_9_1147)">
<path fill-rule="evenodd" clip-rule="evenodd" d="M119.034 147.794C119.658 146.814 119.964 145.664 119.91 144.505L119.906 144.418C119.865 143.525 119.629 142.624 119.12 141.845C118.84 141.415 118.486 140.916 118.134 140.543C117.668 140.051 117.001 139.564 116.46 139.203C115.722 138.71 114.923 138.349 114.131 138.047C112.687 137.496 111.175 137.141 109.636 136.99L109.36 136.963C108.637 136.892 107.912 136.862 107.188 136.871C106.8 136.875 106.372 136.879 106.024 136.881C105.844 136.882 105.641 136.883 105.434 136.883C104.334 136.885 103.395 137.702 103.24 138.802L102.312 145.39C102.174 146.364 102.691 147.309 103.58 147.711L104.936 148.324L105.962 148.89C107.076 149.505 108.266 149.973 109.501 150.282L110.002 150.407C110.815 150.61 111.65 150.714 112.489 150.718L113.265 150.721C114.307 150.725 115.339 150.496 116.286 150.052L116.682 149.866C117.645 149.414 118.461 148.695 119.034 147.794ZM118.746 144.566C118.789 145.483 118.547 146.391 118.054 147.166C117.601 147.878 116.956 148.446 116.195 148.804L115.798 148.99C115.008 149.361 114.146 149.551 113.276 149.548L112.5 149.545C111.754 149.542 111.012 149.449 110.289 149.269L109.788 149.143C108.65 148.859 107.554 148.428 106.527 147.861L105.481 147.284L105.46 147.272L105.439 147.263L104.062 146.641C103.644 146.452 103.401 146.007 103.466 145.549L104.394 138.961C104.467 138.444 104.908 138.057 105.43 138.056C105.637 138.056 105.842 138.055 106.024 138.054C106.376 138.052 106.806 138.048 107.195 138.043C107.878 138.036 108.561 138.064 109.24 138.13L109.516 138.157C110.953 138.298 112.365 138.63 113.713 139.144C114.465 139.431 115.175 139.756 115.812 140.181C116.339 140.532 116.915 140.96 117.287 141.354C117.566 141.649 117.875 142.079 118.145 142.492C118.518 143.064 118.709 143.752 118.742 144.479L118.746 144.566ZM100.234 144.52C100.176 144.956 99.7739 145.261 99.3426 145.195L98.2376 145.026C97.7685 144.955 97.3255 144.868 96.907 144.73C96.6388 144.641 96.3375 144.531 96.0717 144.409C95.8732 144.318 95.6816 144.177 95.4719 143.995L95.1253 143.695C94.6713 143.301 94.3383 142.785 94.1649 142.207C93.9621 141.53 93.992 140.791 94.2459 140.125C94.4749 139.525 94.8774 138.997 95.3943 138.623L95.5661 138.499C96.1591 138.071 96.8575 137.816 97.5838 137.761L97.9212 137.736C98.1925 137.716 98.465 137.717 98.7358 137.74L100.291 137.873C100.731 137.911 101.049 138.31 100.991 138.75L100.234 144.52ZM99.1614 146.355C100.24 146.519 101.246 145.757 101.389 144.667L102.146 138.898C102.291 137.795 101.495 136.799 100.396 136.705L98.8408 136.572C98.5085 136.544 98.1743 136.542 97.8415 136.567L97.5041 136.592C96.563 136.662 95.6582 136.993 94.8899 137.548L94.7181 137.672C94.0123 138.182 93.4681 138.898 93.1581 139.71C92.8127 140.616 92.7704 141.622 93.0491 142.552C93.286 143.342 93.7411 144.047 94.3616 144.585L94.7081 144.885C94.9502 145.095 95.2382 145.318 95.5826 145.476C95.903 145.623 96.2492 145.749 96.5387 145.844C97.0461 146.012 97.5616 146.11 98.0564 146.186L99.1614 146.355ZM106.457 161.528C107.309 160.658 107.872 159.544 108.069 158.341L108.09 158.216C108.236 157.327 108.203 156.387 107.877 155.502C107.641 154.862 107.296 154.05 106.875 153.462C106.386 152.78 105.579 152.1 104.999 151.653C104.437 151.22 103.832 150.871 103.236 150.557C101.687 149.743 100.04 149.134 98.3343 148.744L97.8914 148.643L96.472 148.197C95.541 147.905 94.5265 148.266 93.9801 149.083L90.2848 154.616C89.6677 155.54 89.824 156.774 90.6435 157.509C90.7974 157.647 90.9486 157.783 91.082 157.903C91.3079 158.107 91.503 158.291 91.6937 158.472C92.0138 158.774 92.3218 159.065 92.7411 159.416C93.0967 159.715 93.5258 160.042 93.9408 160.347C95.1218 161.213 96.4268 161.869 97.7711 162.382C98.6516 162.717 99.5825 163.013 100.561 163.143C101.176 163.224 101.927 163.29 102.554 163.237C103.065 163.194 103.661 163.057 104.156 162.923C105.055 162.681 105.831 162.166 106.457 161.528ZM106.92 158.157C106.762 159.12 106.311 160.011 105.629 160.707C105.12 161.226 104.52 161.612 103.86 161.791C103.383 161.919 102.868 162.034 102.462 162.069C101.965 162.111 101.315 162.059 100.72 161.98C99.8686 161.867 99.0329 161.606 98.1896 161.285C96.9172 160.799 95.7092 160.189 94.6309 159.398C94.2246 159.1 93.8184 158.789 93.4905 158.514C93.0894 158.178 92.8281 157.93 92.5317 157.65C92.3395 157.468 92.1324 157.272 91.8631 157.028C91.7282 156.907 91.5758 156.77 91.4212 156.631C91.0331 156.283 90.961 155.701 91.2509 155.267L94.9463 149.734C95.2034 149.349 95.6808 149.179 96.1189 149.317L97.5604 149.77L97.5825 149.777L97.6051 149.782L98.0706 149.888C99.6786 150.255 101.232 150.83 102.692 151.597C103.264 151.898 103.802 152.212 104.287 152.585C104.858 153.026 105.547 153.618 105.928 154.151C106.253 154.605 106.555 155.294 106.784 155.915C107.025 156.569 107.061 157.296 106.94 158.032L106.92 158.157ZM91.9611 148.158C92.0783 147.985 92.0322 147.75 91.8588 147.637L90.6536 146.849C90.2458 146.583 89.8107 146.361 89.3558 146.187L88.7778 145.967C88.4105 145.827 88.0212 145.753 87.6276 145.748C86.9194 145.74 86.2252 145.956 85.6441 146.367L85.5541 146.431C85.0174 146.81 84.6051 147.342 84.3702 147.958C84.1154 148.626 84.0826 149.358 84.2769 150.044L84.314 150.174C84.4662 150.712 84.7322 151.2 85.1027 151.591C85.346 151.849 85.6126 152.121 85.8357 152.327C86.2657 152.724 86.8667 153.183 87.3969 153.566C87.7203 153.799 88.184 153.719 88.4264 153.362L91.9611 148.158ZM92.4974 146.652C93.2173 147.123 93.4089 148.099 92.9221 148.816L89.3874 154.02C88.7912 154.898 87.5917 155.154 86.714 154.52C86.1754 154.131 85.5281 153.639 85.0448 153.193C84.793 152.96 84.5053 152.666 84.2564 152.402C83.7453 151.862 83.3919 151.203 83.1931 150.502L83.156 150.371C82.8926 149.441 82.937 148.449 83.2825 147.543C83.6009 146.708 84.16 145.987 84.8877 145.473L84.9777 145.409C85.76 144.856 86.6944 144.564 87.6479 144.575C88.1777 144.582 88.7017 144.681 89.1962 144.87L89.7742 145.091C90.3063 145.294 90.8152 145.553 91.2921 145.865L92.4974 146.652Z" fill="white"/>
</g>
<path fill-rule="evenodd" clip-rule="evenodd" d="M391.96 171.626C391.884 170.467 391.451 169.358 390.723 168.455L390.668 168.387C390.107 167.691 389.383 167.104 388.512 166.776C388.032 166.595 387.452 166.402 386.947 166.309C386.281 166.187 385.455 166.189 384.805 166.217C383.919 166.256 383.061 166.438 382.244 166.662C380.753 167.071 379.324 167.678 377.993 168.466L377.754 168.608C377.13 168.978 376.527 169.382 375.948 169.817C375.638 170.05 375.295 170.306 375.015 170.514C374.871 170.621 374.707 170.741 374.541 170.864C373.654 171.516 373.38 172.73 373.905 173.709L377.05 179.571C377.515 180.438 378.491 180.895 379.445 180.694L380.901 180.386L382.063 180.237C383.326 180.074 384.562 179.748 385.741 179.267L386.219 179.072C386.995 178.755 387.73 178.346 388.408 177.853L389.036 177.397C389.88 176.784 390.577 175.99 391.078 175.071L391.288 174.687C391.797 173.753 392.031 172.691 391.96 171.626ZM389.82 169.192C390.395 169.906 390.737 170.782 390.798 171.699C390.853 172.541 390.669 173.38 390.266 174.119L390.057 174.503C389.638 175.269 389.056 175.932 388.352 176.444L387.724 176.9C387.121 177.339 386.467 177.703 385.777 177.984L385.299 178.179C384.213 178.623 383.074 178.923 381.911 179.073L380.726 179.225L380.703 179.228L380.68 179.233L379.202 179.545C378.752 179.64 378.294 179.425 378.075 179.017L374.929 173.154C374.683 172.694 374.811 172.121 375.23 171.812C375.398 171.689 375.562 171.568 375.708 171.459C375.991 171.25 376.336 170.992 376.646 170.759C377.193 170.348 377.761 169.968 378.348 169.62L378.586 169.478C379.829 168.743 381.163 168.176 382.555 167.794C383.331 167.581 384.096 167.423 384.861 167.39C385.493 167.362 386.211 167.366 386.744 167.464C387.144 167.537 387.646 167.701 388.109 167.875C388.748 168.116 389.308 168.558 389.765 169.124L389.82 169.192ZM374.86 180.098C375.072 180.483 374.927 180.967 374.54 181.169L373.549 181.686C373.128 181.905 372.72 182.097 372.301 182.233C372.032 182.32 371.724 182.409 371.437 182.468C371.223 182.512 370.986 182.512 370.709 182.489L370.252 182.451C369.653 182.402 369.079 182.183 368.598 181.819C368.034 181.393 367.621 180.779 367.432 180.092C367.262 179.472 367.275 178.808 367.471 178.202L367.536 178C367.761 177.304 368.174 176.685 368.728 176.212L368.985 175.992C369.192 175.816 369.412 175.656 369.644 175.514L370.977 174.703C371.354 174.473 371.846 174.606 372.06 174.996L374.86 180.098ZM375.079 182.211C376.047 181.707 376.408 180.497 375.879 179.533L373.079 174.432C372.544 173.457 371.314 173.124 370.371 173.698L369.038 174.51C368.754 174.683 368.483 174.879 368.229 175.096L367.972 175.316C367.254 175.929 366.72 176.731 366.428 177.632L366.363 177.834C366.095 178.663 366.079 179.561 366.31 180.4C366.566 181.335 367.127 182.172 367.901 182.756C368.559 183.254 369.343 183.553 370.162 183.621L370.619 183.658C370.938 183.685 371.302 183.694 371.674 183.618C372.019 183.547 372.372 183.444 372.662 183.35C373.17 183.185 373.645 182.96 374.088 182.728L375.079 182.211ZM389.932 190.138C390.106 188.932 389.902 187.701 389.35 186.614L389.292 186.501C388.885 185.698 388.303 184.958 387.516 184.438C386.948 184.061 386.189 183.61 385.503 183.385C384.705 183.123 383.651 183.052 382.92 183.034C382.211 183.017 381.516 183.093 380.85 183.193C379.12 183.451 377.431 183.933 375.825 184.628L375.408 184.808L373.999 185.287C373.075 185.601 372.47 186.492 372.513 187.475L372.803 194.122C372.851 195.232 373.707 196.135 374.802 196.243C375.008 196.263 375.21 196.284 375.389 196.302C375.691 196.333 375.958 196.366 376.218 196.399C376.655 196.453 377.075 196.506 377.621 196.542C378.085 196.572 378.624 196.583 379.139 196.583C380.604 196.584 382.044 196.341 383.431 195.96C384.34 195.711 385.266 195.399 386.132 194.925C386.676 194.627 387.321 194.237 387.795 193.824C388.181 193.486 388.581 193.023 388.902 192.623C389.483 191.896 389.805 191.022 389.932 190.138ZM388.313 187.145C388.755 188.015 388.918 189 388.78 189.965C388.676 190.684 388.42 191.351 387.994 191.884C387.685 192.27 387.337 192.668 387.03 192.935C386.654 193.263 386.099 193.606 385.572 193.894C384.819 194.306 383.991 194.589 383.12 194.828C381.807 195.189 380.472 195.411 379.135 195.41C378.631 195.409 378.12 195.399 377.692 195.371C377.17 195.337 376.813 195.292 376.408 195.241C376.145 195.207 375.863 195.172 375.502 195.135C375.321 195.116 375.117 195.096 374.91 195.075C374.392 195.024 373.989 194.597 373.966 194.075L373.677 187.428C373.657 186.966 373.942 186.547 374.376 186.399L375.807 185.912L375.829 185.905L375.85 185.896L376.288 185.706C377.802 185.052 379.394 184.597 381.026 184.353C381.665 184.258 382.285 184.193 382.897 184.207C383.618 184.225 384.523 184.296 385.146 184.5C385.676 184.674 386.327 185.052 386.879 185.417C387.46 185.802 387.919 186.368 388.256 187.032L388.313 187.145ZM370.337 187.922C370.33 187.713 370.154 187.551 369.947 187.562L368.509 187.639C368.023 187.665 367.541 187.743 367.071 187.872L366.475 188.036C366.096 188.14 365.738 188.31 365.418 188.539C364.841 188.951 364.41 189.536 364.184 190.211L364.149 190.316C363.94 190.939 363.922 191.612 364.096 192.247C364.286 192.937 364.692 193.546 365.254 193.985L365.361 194.068C365.802 194.412 366.305 194.648 366.835 194.745C367.183 194.809 367.559 194.871 367.861 194.905C368.443 194.972 369.199 194.986 369.852 194.982C370.251 194.979 370.578 194.64 370.562 194.209L370.337 187.922ZM369.88 186.39C370.739 186.344 371.471 187.019 371.502 187.885L371.727 194.171C371.765 195.232 370.948 196.147 369.866 196.155C369.201 196.16 368.389 196.146 367.735 196.071C367.394 196.032 366.988 195.965 366.632 195.899C365.9 195.766 365.226 195.443 364.651 194.995L364.543 194.911C363.781 194.317 363.23 193.49 362.974 192.555C362.737 191.694 362.762 190.782 363.045 189.937L363.08 189.832C363.384 188.923 363.965 188.136 364.741 187.581C365.172 187.273 365.654 187.044 366.164 186.904L366.76 186.74C367.31 186.589 367.873 186.498 368.442 186.467L369.88 186.39Z" fill="white"/>
</g>
<g clip-path="url(#clip3_9_1147)">
<path fill-rule="evenodd" clip-rule="evenodd" d="M30.7124 620.875C29.9609 619.989 28.9538 619.356 27.8307 619.064L27.7459 619.041C26.8811 618.816 25.9506 618.775 25.0554 619.03C24.5622 619.17 23.9804 619.36 23.5199 619.586C22.9117 619.884 22.2488 620.377 21.7436 620.787C21.0547 621.346 20.4734 622.002 19.9501 622.668C18.9956 623.885 18.2079 625.223 17.6075 626.649L17.4998 626.904C17.2181 627.573 16.9747 628.257 16.7678 628.951C16.6572 629.322 16.5344 629.732 16.4329 630.066C16.3806 630.238 16.321 630.432 16.2601 630.63C15.9358 631.681 16.4376 632.82 17.4423 633.294L23.4591 636.134C24.3485 636.554 25.4041 636.34 26.0515 635.61L27.0386 634.497L27.8834 633.685C28.8016 632.803 29.6011 631.805 30.262 630.717L30.53 630.276C30.9649 629.56 31.3119 628.793 31.5637 627.993L31.7968 627.253C32.1099 626.258 32.1977 625.205 32.0539 624.169L31.9938 623.736C31.8475 622.682 31.4029 621.69 30.7124 620.875ZM27.5438 620.193C28.4316 620.425 29.2277 620.925 29.8217 621.626C30.3676 622.269 30.719 623.054 30.8346 623.887L30.8947 624.32C31.0148 625.185 30.9415 626.064 30.6801 626.895L30.447 627.635C30.2231 628.346 29.9145 629.028 29.5278 629.664L29.2597 630.106C28.6509 631.109 27.9143 632.028 27.0683 632.841L26.2067 633.668L26.19 633.684L26.1746 633.702L25.1722 634.832C24.8675 635.176 24.3709 635.276 23.9523 635.079L17.9355 632.239C17.4635 632.016 17.2252 631.48 17.3788 630.981C17.4399 630.783 17.5001 630.587 17.553 630.413C17.6554 630.077 17.7789 629.664 17.8898 629.292C18.0851 628.637 18.3144 627.993 18.5792 627.364L18.6869 627.109C19.2473 625.778 19.9827 624.528 20.8736 623.393C21.3704 622.76 21.8911 622.178 22.486 621.696C22.9777 621.297 23.5575 620.873 24.0432 620.635C24.4084 620.456 24.9097 620.288 25.3849 620.153C26.0419 619.966 26.7556 619.988 27.459 620.171L27.5438 620.193ZM22.012 637.86C22.4113 638.044 22.5832 638.519 22.3924 638.911L21.9036 639.917C21.6961 640.343 21.4816 640.741 21.2259 641.099C21.0619 641.329 20.8673 641.584 20.6718 641.802C20.5258 641.965 20.3349 642.106 20.099 642.252L19.7092 642.494C19.1985 642.811 18.6071 642.976 18.0036 642.97C17.2972 642.964 16.5998 642.716 16.0394 642.276C15.5339 641.879 15.149 641.338 14.9456 640.734L14.878 640.533C14.6447 639.84 14.6078 639.097 14.7713 638.387L14.8473 638.058C14.9084 637.793 14.9906 637.533 15.093 637.281L15.6807 635.835C15.847 635.426 16.3221 635.241 16.726 635.427L22.012 637.86ZM23.446 639.428C23.923 638.447 23.4934 637.26 22.4951 636.8L17.2091 634.367C16.1992 633.902 15.0115 634.366 14.5958 635.389L14.0081 636.834C13.8824 637.143 13.7816 637.462 13.7067 637.787L13.6307 638.117C13.4188 639.036 13.4666 639.999 13.769 640.897L13.8366 641.098C14.1143 641.923 14.6365 642.655 15.3206 643.192C16.0831 643.79 17.032 644.129 18.0019 644.138C18.8267 644.146 19.635 643.921 20.3328 643.488L20.7227 643.246C20.995 643.077 21.2928 642.868 21.5462 642.586C21.7817 642.323 22.0043 642.03 22.1813 641.782C22.4914 641.347 22.7384 640.884 22.9572 640.433L23.446 639.428ZM40.0997 636.959C39.5215 635.887 38.6252 635.019 37.5349 634.474L37.4213 634.417C36.6155 634.015 35.7076 633.767 34.7656 633.816C34.085 633.852 33.2066 633.941 32.5209 634.168C31.7244 634.433 30.8352 635.002 30.2367 635.424C29.657 635.832 29.1437 636.306 28.6676 636.783C27.431 638.02 26.3607 639.413 25.4833 640.926L25.2554 641.319L24.4085 642.543C23.8532 643.345 23.8971 644.421 24.5162 645.185L28.7046 650.355C29.404 651.218 30.6295 651.435 31.5737 650.87C31.7512 650.764 31.9258 650.66 32.0804 650.568C32.3422 650.413 32.5759 650.281 32.8045 650.152C33.188 649.936 33.557 649.728 34.0175 649.432C34.4079 649.181 34.8476 648.868 35.2615 648.562C36.4391 647.691 37.4521 646.639 38.3404 645.507C38.9222 644.766 39.4804 643.964 39.8945 643.068C40.1548 642.505 40.4404 641.807 40.5754 641.193C40.6854 640.692 40.7314 640.082 40.7505 639.569C40.7853 638.639 40.524 637.745 40.0997 636.959ZM37.0178 635.517C37.8903 635.953 38.6076 636.648 39.0704 637.506C39.4155 638.146 39.6065 638.834 39.5811 639.516C39.5627 640.01 39.5194 640.537 39.4321 640.934C39.325 641.422 39.0827 642.027 38.831 642.572C38.4709 643.351 37.9741 644.072 37.4169 644.782C36.5761 645.854 35.6351 646.826 34.5597 647.622C34.1546 647.921 33.7378 648.217 33.3778 648.449C32.9375 648.732 32.6237 648.908 32.2679 649.108C32.0372 649.238 31.7886 649.377 31.4765 649.563C31.3202 649.655 31.1442 649.76 30.9661 649.867C30.5188 650.134 29.9408 650.03 29.6123 649.625L25.4239 644.456C25.1325 644.096 25.1119 643.59 25.3732 643.212L26.2332 641.97L26.2463 641.951L26.2579 641.93L26.4974 641.517C27.3246 640.09 28.3336 638.777 29.4995 637.611C29.9565 637.154 30.4157 636.732 30.9162 636.38C31.5062 635.965 32.2763 635.483 32.8983 635.277C33.4279 635.101 34.1751 635.017 34.8367 634.982C35.5326 634.946 36.2378 635.128 36.9041 635.461L37.0178 635.517ZM23.0338 646.839C22.9037 646.676 22.6656 646.651 22.506 646.783L21.3964 647.7C21.0211 648.011 20.6801 648.36 20.3795 648.743L19.9976 649.23C19.7549 649.539 19.5687 649.889 19.4475 650.264C19.2296 650.938 19.2307 651.665 19.4509 652.341L19.485 652.446C19.6883 653.071 20.0739 653.623 20.5923 654.03C21.1548 654.471 21.8442 654.719 22.5567 654.737L22.6927 654.741C23.251 654.754 23.7959 654.645 24.2797 654.407C24.5975 654.251 24.9367 654.077 25.1997 653.925C25.7066 653.632 26.3228 653.194 26.8455 652.802C27.1645 652.562 27.225 652.095 26.9561 651.758L23.0338 646.839ZM21.755 645.881C22.4177 645.333 23.4069 645.439 23.9472 646.117L27.8695 651.035C28.5311 651.865 28.4198 653.086 27.5543 653.737C27.0233 654.136 26.3618 654.608 25.7921 654.937C25.4952 655.109 25.1285 655.296 24.8035 655.456C24.1359 655.784 23.4021 655.926 22.673 655.908L22.5371 655.905C21.5709 655.881 20.6361 655.544 19.8736 654.946C19.1707 654.394 18.6478 653.646 18.3722 652.799L18.338 652.694C18.0417 651.783 18.0401 650.804 18.3336 649.897C18.4967 649.393 18.7473 648.922 19.0741 648.505L19.456 648.019C19.8076 647.571 20.2063 647.162 20.6453 646.798L21.755 645.881Z" fill="white"/>
</g>
<g clip-path="url(#clip4_9_1147)">
<path fill-rule="evenodd" clip-rule="evenodd" d="M66.0148 575.452C65.2634 574.566 64.2563 573.933 63.1332 573.64L63.0484 573.618C62.1836 573.393 61.2531 573.352 60.3579 573.606C59.8647 573.747 59.2829 573.937 58.8224 574.163C58.2142 574.461 57.5513 574.954 57.0461 575.364C56.3571 575.922 55.7759 576.578 55.2526 577.245C54.2981 578.461 53.5104 579.8 52.91 581.225L52.8023 581.481C52.5206 582.15 52.2772 582.833 52.0703 583.528C51.9597 583.899 51.8369 584.309 51.7354 584.642C51.6831 584.814 51.6235 585.009 51.5625 585.206C51.2383 586.258 51.7401 587.397 52.7448 587.871L58.7616 590.71C59.651 591.13 60.7066 590.917 61.354 590.187L62.3411 589.074L63.1859 588.262C64.1041 587.38 64.9036 586.382 65.5645 585.294L65.8325 584.852C66.2673 584.136 66.6144 583.37 66.8662 582.57L67.0993 581.83C67.4124 580.835 67.5001 579.782 67.3564 578.746L67.2963 578.312C67.15 577.259 66.7054 576.266 66.0148 575.452ZM62.8463 574.77C63.7341 575.001 64.5302 575.502 65.1242 576.202C65.6701 576.846 66.0215 577.63 66.1371 578.463L66.1972 578.897C66.3173 579.762 66.244 580.641 65.9826 581.471L65.7495 582.212C65.5256 582.923 65.217 583.604 64.8303 584.241L64.5622 584.683C63.9534 585.685 63.2168 586.604 62.3708 587.417L61.5092 588.245L61.4925 588.261L61.4771 588.278L60.4747 589.409C60.17 589.752 59.6734 589.853 59.2548 589.655L53.238 586.816C52.766 586.593 52.5277 586.056 52.6813 585.558C52.7424 585.36 52.8025 585.164 52.8555 584.99C52.9579 584.653 53.0814 584.241 53.1923 583.869C53.3876 583.213 53.6169 582.57 53.8817 581.941L53.9894 581.685C54.5498 580.354 55.2852 579.105 56.1761 577.97C56.6729 577.337 57.1935 576.755 57.7885 576.272C58.2802 575.874 58.86 575.45 59.3457 575.211C59.7109 575.032 60.2122 574.865 60.6874 574.73C61.3444 574.543 62.0581 574.565 62.7615 574.748L62.8463 574.77ZM57.3145 592.437C57.7138 592.621 57.8857 593.096 57.6949 593.488L57.2061 594.493C56.9986 594.92 56.7841 595.317 56.5284 595.676C56.3644 595.906 56.1698 596.161 55.9743 596.379C55.8283 596.541 55.6374 596.683 55.4015 596.829L55.0117 597.071C54.501 597.388 53.9096 597.553 53.3061 597.547C52.5996 597.54 51.9023 597.292 51.3418 596.853C50.8364 596.456 50.4515 595.915 50.2481 595.311L50.1805 595.11C49.9472 594.416 49.9103 593.674 50.0738 592.964L50.1498 592.634C50.2109 592.369 50.2931 592.109 50.3954 591.858L50.9832 590.412C51.1495 590.003 51.6246 589.817 52.0285 590.003L57.3145 592.437ZM58.7485 594.005C59.2255 593.024 58.7959 591.837 57.7976 591.377L52.5115 588.943C51.5017 588.479 50.314 588.943 49.8983 589.965L49.3106 591.411C49.1849 591.72 49.0841 592.038 49.0092 592.364L48.9332 592.693C48.7213 593.613 48.7691 594.575 49.0715 595.474L49.1391 595.674C49.4168 596.5 49.939 597.232 50.6231 597.768C51.3856 598.367 52.3345 598.706 53.3044 598.715C54.1292 598.723 54.9375 598.497 55.6353 598.064L56.0252 597.822C56.2975 597.653 56.5953 597.444 56.8487 597.162C57.0842 596.9 57.3068 596.607 57.4838 596.358C57.7939 595.923 58.0409 595.46 58.2597 595.01L58.7485 594.005ZM75.4022 591.535C74.824 590.464 73.9277 589.595 72.8374 589.051L72.7237 588.994C71.918 588.591 71.01 588.343 70.0681 588.393C69.3875 588.429 68.5091 588.517 67.8234 588.745C67.0269 589.009 66.1377 589.579 65.5392 590C64.9595 590.408 64.4462 590.883 63.9701 591.359C62.7335 592.597 61.6632 593.99 60.7857 595.503L60.5579 595.896L59.711 597.12C59.1557 597.922 59.1996 598.998 59.8187 599.762L64.0071 604.931C64.7065 605.795 65.9319 606.011 66.8762 605.446C67.0537 605.34 67.2283 605.236 67.3829 605.145C67.6447 604.989 67.8784 604.858 68.107 604.729C68.4905 604.513 68.8595 604.305 69.32 604.009C69.7104 603.757 70.1501 603.445 70.5639 603.139C71.7416 602.268 72.7546 601.216 73.6429 600.084C74.2247 599.342 74.7829 598.541 75.197 597.645C75.4573 597.081 75.7429 596.384 75.8778 595.77C75.9879 595.269 76.0339 594.658 76.053 594.146C76.0878 593.216 75.8265 592.322 75.4022 591.535ZM72.3203 590.094C73.1928 590.53 73.9101 591.225 74.3728 592.083C74.718 592.722 74.909 593.41 74.8836 594.093C74.8652 594.587 74.8219 595.113 74.7346 595.511C74.6274 595.998 74.3852 596.604 74.1335 597.149C73.7734 597.928 73.2766 598.649 72.7194 599.359C71.8786 600.43 70.9376 601.403 69.8622 602.198C69.4571 602.498 69.0403 602.794 68.6802 603.025C68.24 603.309 67.9262 603.485 67.5704 603.685C67.3396 603.814 67.0911 603.954 66.779 604.139C66.6227 604.232 66.4467 604.337 66.2686 604.443C65.8213 604.711 65.2433 604.607 64.9148 604.202L60.7264 599.032C60.435 598.673 60.4144 598.166 60.6757 597.789L61.5357 596.546L61.5488 596.527L61.5604 596.507L61.7999 596.094C62.6271 594.667 63.6361 593.354 64.802 592.188C65.259 591.73 65.7182 591.309 66.2187 590.957C66.8087 590.541 67.5788 590.06 68.2007 589.853C68.7304 589.678 69.4776 589.594 70.1392 589.559C70.8351 589.522 71.5403 589.704 72.2066 590.037L72.3203 590.094ZM58.3363 601.416C58.2062 601.253 57.9681 601.227 57.8085 601.359L56.6989 602.277C56.3236 602.587 55.9826 602.937 55.6819 603.32L55.3001 603.807C55.0574 604.116 54.8712 604.466 54.75 604.84C54.5321 605.514 54.5332 606.241 54.7534 606.918L54.7875 607.023C54.9907 607.648 55.3764 608.2 55.8948 608.606C56.4572 609.048 57.1466 609.296 57.8592 609.314L57.9952 609.317C58.5535 609.331 59.0983 609.222 59.5822 608.984C59.9 608.828 60.2392 608.654 60.5022 608.502C61.0091 608.209 61.6253 607.771 62.148 607.378C62.467 607.139 62.5275 606.672 62.2586 606.335L58.3363 601.416ZM57.0575 600.457C57.7202 599.909 58.7094 600.016 59.2497 600.693L63.172 605.612C63.8336 606.442 63.7223 607.663 62.8568 608.313C62.3258 608.712 61.6643 609.185 61.0946 609.514C60.7977 609.686 60.431 609.873 60.106 610.033C59.4384 610.361 58.7046 610.503 57.9755 610.485L57.8396 610.481C56.8734 610.457 55.9386 610.121 55.1761 609.522C54.4732 608.971 53.9503 608.223 53.6747 607.375L53.6405 607.271C53.3442 606.359 53.3426 605.381 53.6361 604.473C53.7992 603.969 54.0498 603.498 54.3766 603.082L54.7584 602.595C55.1101 602.147 55.5087 601.738 55.9478 601.375L57.0575 600.457Z" fill="white"/>
</g>
</g>
<defs>
<clipPath id="clip0_9_1147">
<rect width="390" height="661" fill="white"/>
</clipPath>
<clipPath id="clip1_9_1147">
<rect width="41.1039" height="41.1039" fill="white" transform="translate(73.6538 116.188) rotate(110.88)"/>
</clipPath>
<clipPath id="clip2_9_1147">
<rect width="41.1039" height="41.1039" fill="white" transform="translate(127.5 136.438) rotate(110.88)"/>
</clipPath>
<clipPath id="clip3_9_1147">
<rect width="41.1039" height="41.1039" fill="white" transform="translate(22.3765 609.423) rotate(38.1247)"/>
</clipPath>
<clipPath id="clip4_9_1147">
<rect width="41.1039" height="41.1039" fill="white" transform="translate(57.679 564) rotate(38.1247)"/>
</clipPath>
</defs>
</svg>
